<?xml version="1.0" encoding="UTF-8" standalone="no"?><svg xmlns="http://www.w3.org/2000/svg" xmlns:xlink="http://www.w3.org/1999/xlink" fill="#8a95a0" height="58.5" preserveAspectRatio="xMidYMid meet" version="1" viewBox="1.7 2.6 60.8 58.5" width="60.8" zoomAndPan="magnify"><g id="change1_1"><path d="M 59.867188 29.421875 L 58.257812 31.808594 L 23.40625 8.335938 L 25.015625 5.949219 C 25.753906 4.851562 27.25 4.558594 28.34375 5.296875 L 59.214844 26.089844 C 60.3125 26.828125 60.605469 28.324219 59.867188 29.421875 Z M 48.640625 46.089844 L 50.410156 33.460938 L 55.042969 36.582031 Z M 45.359375 57.042969 C 45.175781 58.351562 43.960938 59.269531 42.652344 59.085938 L 5.792969 53.921875 C 4.484375 53.738281 3.5625 52.519531 3.75 51.210938 L 6.011719 35.058594 L 47.625 40.894531 Z M 7.210938 26.511719 C 7.394531 25.199219 8.609375 24.285156 9.917969 24.46875 L 46.777344 29.636719 C 48.089844 29.816406 49.007812 31.03125 48.820312 32.34375 L 48.421875 35.191406 L 6.808594 29.359375 Z M 20.195312 13.109375 L 40.921875 27.070312 L 13.390625 23.207031 Z M 60.179688 24.660156 L 29.3125 3.867188 C 27.425781 2.597656 24.855469 3.09375 23.582031 4.984375 L 11.484375 22.941406 L 10.160156 22.757812 C 7.90625 22.441406 5.816406 24.019531 5.5 26.273438 L 2.042969 50.96875 C 1.722656 53.222656 3.300781 55.3125 5.550781 55.628906 L 42.410156 60.796875 C 44.664062 61.113281 46.753906 59.53125 47.070312 57.28125 L 48.09375 49.992188 L 61.296875 30.382812 C 62.570312 28.5 62.066406 25.929688 60.179688 24.660156" fill="inherit"/><path d="M 25.910156 42.347656 L 43.683594 44.84375 L 43.878906 43.433594 L 26.109375 40.941406 L 25.910156 42.347656" fill="inherit"/><path d="M 25.488281 45.394531 L 43.257812 47.882812 L 43.453125 46.472656 L 25.683594 43.980469 L 25.488281 45.394531" fill="inherit"/></g></svg>