<svg xmlns="http://www.w3.org/2000/svg" xmlns:xlink="http://www.w3.org/1999/xlink" width="1080" zoomAndPan="magnify" viewBox="0 0 810 675.000002" height="900" preserveAspectRatio="xMidYMid meet" version="1.0"><defs><clipPath id="f17491d330"><path d="M 199.242188 464.335938 L 400 464.335938 L 400 560 L 199.242188 560 Z M 199.242188 464.335938 " clip-rule="nonzero"/></clipPath><clipPath id="a21a296fc2"><path d="M 430 465 L 614 465 L 614 560.480469 L 430 560.480469 Z M 430 465 " clip-rule="nonzero"/></clipPath><clipPath id="0ca737b9f3"><path d="M 16 359.457031 L 176 359.457031 L 176 560.910156 L 16 560.910156 Z M 16 359.457031 " clip-rule="nonzero"/></clipPath><clipPath id="e9c0feefff"><path d="M 642 525 L 797.5 525 L 797.5 560.734375 L 642 560.734375 Z M 642 525 " clip-rule="nonzero"/></clipPath><clipPath id="aac1587483"><path d="M 643 454 L 797.5 454 L 797.5 543 L 643 543 Z M 643 454 " clip-rule="nonzero"/></clipPath><clipPath id="d556247d23"><path d="M 448 83.253906 L 697 83.253906 L 697 370.824219 L 448 370.824219 Z M 448 83.253906 " clip-rule="nonzero"/></clipPath><clipPath id="0dfe5db881"><path d="M 158.328125 67.398438 L 381 67.398438 L 381 359.46875 L 158.328125 359.46875 Z M 158.328125 67.398438 " clip-rule="nonzero"/></clipPath></defs><g clip-path="url(#f17491d330)"><path fill="#000000" d="M 330.992188 497.644531 C 330.992188 497.730469 331.078125 497.730469 331.164062 497.730469 C 331.164062 497.730469 331.164062 497.730469 331.25 497.730469 C 336.152344 494.882812 341.566406 497.644531 342.941406 502.988281 C 343.027344 503.417969 343.113281 504.019531 343.199219 504.539062 C 343.199219 504.625 343.285156 504.710938 343.371094 504.625 C 346.378906 502.902344 349.730469 503.503906 351.964844 506.089844 C 353.339844 507.640625 353.855469 509.625 353.511719 511.949219 C 353.511719 512.035156 353.511719 512.035156 353.597656 512.125 L 354.972656 513.242188 C 355.144531 513.328125 355.316406 513.417969 355.488281 513.328125 C 360.730469 512.125 366.144531 511.003906 371.472656 510.570312 C 378.863281 509.882812 386.253906 511.519531 392.359375 515.742188 C 396.65625 518.761719 400.695312 524.019531 399.492188 529.707031 C 398.546875 533.929688 394.851562 537.207031 391.5 539.617188 C 388.230469 541.945312 384.792969 543.929688 381.183594 545.652344 C 356.863281 557.203125 329.359375 560.910156 302.632812 559.527344 C 295.242188 559.183594 287.851562 558.753906 280.546875 558.410156 C 259.917969 557.375 239.207031 557.804688 218.578125 558.0625 C 214.96875 558.0625 210.84375 558.148438 207.492188 556.683594 C 203.109375 554.703125 200.1875 550.824219 199.5 545.996094 C 199.242188 544.015625 199.328125 540.996094 199.757812 539.101562 C 200.015625 537.894531 200.789062 537.03125 202.078125 536.515625 C 202.164062 536.515625 202.164062 536.429688 202.164062 536.34375 C 201.5625 533.242188 201.304688 529.792969 201.304688 526.085938 C 201.21875 516.691406 202.164062 507.46875 204.054688 498.332031 C 204.398438 496.78125 204.742188 494.882812 205.601562 493.59375 C 206.976562 491.609375 209.898438 490.917969 212.046875 492.039062 C 212.5625 492.300781 213.164062 492.816406 214.023438 493.679688 C 218.664062 498.417969 223.996094 502.46875 230.183594 504.882812 C 241.183594 509.105469 250.636719 505.226562 258.542969 497.46875 C 258.628906 497.46875 258.628906 497.296875 258.714844 497.125 C 258.714844 497.039062 258.800781 496.867188 258.800781 496.78125 C 259.402344 486.609375 262.152344 477.820312 268.597656 469.890625 C 269.542969 468.769531 271.003906 467.21875 272.980469 465.148438 C 273.753906 464.371094 274.097656 464.371094 274.957031 464.890625 C 275.902344 465.492188 276.847656 466.097656 277.878906 466.699219 C 284.414062 470.75 290.945312 474.800781 297.476562 478.851562 C 297.5625 478.9375 297.648438 478.9375 297.734375 478.851562 C 303.0625 475.578125 308.476562 478.164062 310.453125 483.679688 C 310.453125 483.765625 310.539062 483.851562 310.625 483.851562 C 315.007812 483.851562 319.046875 487.042969 319.304688 491.609375 C 319.304688 491.695312 319.390625 491.695312 319.390625 491.695312 C 322.484375 490.144531 325.75 490.574219 328.328125 492.816406 C 329.53125 493.9375 330.734375 495.832031 330.992188 497.644531 Z M 266.191406 480.664062 C 264.558594 484.195312 263.355469 488.246094 263.097656 492.210938 C 263.097656 492.386719 263.183594 492.386719 263.269531 492.300781 C 263.871094 491.78125 265.761719 490.058594 265.933594 489.367188 C 267.308594 482.300781 270.230469 475.921875 274.699219 470.234375 C 274.785156 470.148438 274.785156 469.976562 274.613281 469.890625 C 274.613281 469.890625 274.527344 469.890625 274.527344 469.890625 L 274.441406 469.890625 C 274.183594 469.800781 273.925781 469.800781 273.667969 470.0625 C 270.402344 473.25 267.910156 476.871094 266.191406 480.664062 Z M 335.894531 508.246094 C 335.808594 508.246094 335.808594 508.160156 335.808594 508.070312 C 337.097656 506.78125 339.246094 504.710938 338.214844 502.816406 C 337.441406 501.261719 335.464844 500.660156 333.828125 501.175781 C 332.28125 501.695312 330.820312 503.589844 329.875 504.96875 C 329.703125 505.226562 329.445312 505.3125 329.015625 505.140625 C 327.210938 504.453125 325.320312 503.761719 323.429688 502.988281 C 323.171875 502.902344 323.171875 502.726562 323.34375 502.554688 C 324.460938 501.78125 326.09375 500.746094 326.4375 499.28125 C 326.867188 497.816406 326.265625 496.351562 324.976562 495.488281 C 323.515625 494.453125 322.140625 494.453125 320.679688 495.488281 C 319.132812 496.695312 317.585938 497.816406 316.039062 499.109375 C 315.953125 499.195312 315.867188 499.195312 315.78125 499.109375 L 309.851562 496.695312 C 309.765625 496.695312 309.765625 496.609375 309.765625 496.523438 C 309.765625 496.523438 309.765625 496.523438 309.851562 496.4375 C 311.054688 495.660156 312.171875 494.796875 313.289062 494.023438 C 313.976562 493.503906 314.40625 492.816406 314.40625 491.953125 C 314.492188 489.714844 312.6875 487.988281 310.539062 487.730469 C 309.335938 487.558594 308.390625 488.335938 307.359375 489.109375 C 305.8125 490.230469 304.265625 491.351562 302.804688 492.558594 C 302.632812 492.644531 302.460938 492.730469 302.289062 492.558594 L 299.96875 491.179688 C 299.882812 491.09375 299.882812 491.007812 299.882812 490.917969 C 299.882812 490.917969 299.882812 490.917969 299.96875 490.832031 C 301.429688 489.800781 302.890625 488.765625 304.265625 487.558594 C 305.46875 486.523438 306.242188 485.144531 305.46875 483.59375 C 304.4375 481.523438 301.945312 480.40625 299.882812 481.695312 C 297.390625 483.25 294.984375 484.714844 292.578125 486.351562 C 292.40625 486.4375 292.234375 486.4375 292.0625 486.351562 C 287.59375 484.023438 283.039062 482.558594 278.222656 485.144531 C 274.957031 486.867188 272.035156 489.367188 269.285156 492.039062 C 262.066406 499.109375 254.332031 507.640625 244.019531 509.882812 C 233.792969 512.125 223.652344 507.46875 215.828125 501.003906 C 214.28125 499.710938 212.90625 498.503906 211.789062 497.296875 C 211.015625 496.4375 209.984375 495.058594 208.78125 495.660156 C 208.179688 496.003906 207.921875 496.695312 207.835938 497.382812 C 205.773438 507.296875 204.828125 517.292969 205 527.292969 C 205.085938 529.878906 205.34375 532.464844 205.859375 534.964844 C 205.945312 535.222656 206.03125 535.480469 206.117188 535.652344 C 206.203125 535.738281 206.375 535.828125 206.460938 535.738281 C 206.546875 535.738281 206.546875 535.652344 206.546875 535.652344 C 206.632812 535.480469 206.632812 535.308594 206.632812 535.136719 C 206.460938 522.8125 207.0625 510.398438 210.242188 498.417969 C 210.242188 498.332031 210.328125 498.246094 210.5 498.332031 C 210.5 498.332031 210.585938 498.332031 210.585938 498.417969 C 221.757812 509.710938 237.488281 517.035156 253.042969 508.933594 C 258.457031 506.089844 263.097656 502.296875 267.394531 497.988281 C 267.480469 497.902344 267.652344 497.902344 267.738281 497.902344 C 281.664062 505.574219 295.929688 512.554688 310.539062 518.847656 C 319.90625 522.898438 329.53125 526.429688 339.417969 529.015625 C 343.628906 530.136719 347.925781 530.914062 352.222656 531.515625 C 354.886719 531.863281 357.207031 531.601562 359.699219 530.914062 C 359.871094 530.828125 359.871094 530.828125 359.699219 530.828125 C 358.410156 530.828125 357.121094 530.828125 355.746094 530.65625 C 348.613281 529.707031 341.652344 528.15625 334.773438 526 C 313.03125 519.277344 292.578125 509.019531 270.832031 496.867188 C 270.402344 496.609375 269.972656 496.351562 269.628906 496.003906 C 269.542969 495.917969 269.542969 495.832031 269.628906 495.746094 C 273.152344 492.125 278.996094 485.144531 284.84375 486.265625 C 286.5625 486.609375 288.195312 487.128906 289.742188 487.902344 C 289.828125 487.902344 289.828125 487.988281 289.828125 488.074219 C 289.828125 488.074219 289.828125 488.074219 289.742188 488.160156 C 288.28125 489.023438 286.820312 489.972656 285.445312 491.007812 C 285.1875 491.179688 285.015625 491.265625 284.929688 491.265625 C 281.75 491.4375 279.425781 494.28125 280.375 497.46875 C 281.320312 500.488281 284.757812 501.867188 287.421875 500.054688 C 288.28125 499.453125 288.882812 498.589844 289.3125 497.644531 C 289.398438 497.46875 289.570312 497.382812 289.742188 497.296875 C 290.515625 497.125 291.289062 496.78125 292.0625 496.351562 C 293.78125 495.316406 295.5 494.195312 297.21875 493.160156 C 297.304688 493.074219 297.390625 493.074219 297.476562 493.160156 L 300.3125 494.710938 C 300.484375 494.796875 300.484375 494.972656 300.3125 495.058594 C 299.453125 495.660156 298.679688 496.265625 297.820312 497.039062 C 297.21875 497.558594 296.53125 497.730469 296.015625 497.988281 C 293.4375 499.367188 292.40625 502.296875 293.953125 504.796875 C 296.53125 509.191406 302.289062 506.953125 302.71875 502.382812 C 302.71875 501.867188 302.890625 501.695312 303.234375 501.433594 C 304.609375 500.574219 305.984375 499.625 307.359375 498.675781 C 307.445312 498.589844 307.617188 498.589844 307.703125 498.675781 L 313.804688 501.175781 C 313.890625 501.175781 313.890625 501.261719 313.890625 501.347656 C 313.890625 501.347656 313.890625 501.347656 313.890625 501.433594 C 312.859375 502.296875 311.914062 503.160156 311.054688 504.105469 C 310.796875 504.367188 310.367188 504.710938 310.109375 504.710938 C 304.351562 505.398438 304.179688 513.328125 309.765625 514.105469 C 312.773438 514.535156 315.007812 511.949219 314.835938 509.019531 C 314.835938 508.933594 314.835938 508.847656 314.921875 508.847656 L 320.679688 505.054688 C 320.765625 504.96875 320.851562 504.96875 320.9375 505.054688 L 327.125 507.382812 C 327.210938 507.382812 327.210938 507.46875 327.210938 507.554688 C 327.210938 507.554688 327.210938 507.554688 327.210938 507.640625 C 326.4375 508.332031 325.835938 509.105469 325.0625 509.882812 C 324.546875 510.398438 323.773438 510.65625 323.257812 510.917969 C 320.507812 512.640625 320.421875 516.863281 323.085938 518.675781 C 325.75 520.484375 329.273438 519.277344 330.046875 516.089844 C 330.132812 515.570312 330.132812 514.882812 330.21875 514.363281 C 330.21875 514.277344 330.304688 514.191406 330.304688 514.105469 L 333.742188 510.746094 C 333.828125 510.65625 334 510.65625 334.085938 510.65625 L 340.621094 512.726562 C 340.792969 512.8125 340.792969 512.8125 340.707031 512.984375 C 340.191406 513.675781 339.761719 514.621094 339.074219 515.140625 C 338.816406 515.3125 338.558594 515.570312 338.300781 515.742188 C 334.601562 518.5 336.839844 524.191406 341.394531 524.019531 C 344.144531 523.929688 345.863281 521.433594 345.605469 518.847656 C 345.519531 518.242188 345.519531 517.8125 345.433594 517.554688 C 345.433594 517.46875 345.433594 517.382812 345.519531 517.292969 L 346.894531 515.570312 C 346.980469 515.398438 347.238281 515.398438 347.410156 515.484375 C 353.597656 518.847656 358.667969 523.929688 362.277344 529.964844 C 362.277344 529.964844 362.363281 530.050781 362.363281 529.964844 L 363.910156 529.449219 C 363.910156 529.449219 363.996094 529.449219 363.910156 529.363281 C 360.730469 523.757812 356.519531 519.191406 351.277344 515.570312 C 350.332031 514.882812 349.300781 514.191406 348.269531 513.589844 C 348.183594 513.503906 348.183594 513.417969 348.183594 513.328125 C 348.441406 512.984375 348.785156 512.554688 349.042969 512.125 C 349.988281 510.398438 349.214844 508.246094 347.324219 507.8125 C 344.917969 507.296875 343.800781 509.019531 342.425781 510.65625 C 342.339844 510.746094 342.253906 510.746094 342.082031 510.746094 Z M 350.074219 545.480469 C 348.785156 548.324219 335.980469 550.21875 333.054688 550.652344 C 325.234375 551.773438 317.414062 552.203125 309.507812 552.117188 C 294.8125 551.945312 279.945312 550.566406 265.417969 550.21875 C 247.800781 549.875 227.691406 549.703125 208.609375 550.304688 C 207.664062 550.304688 206.71875 550.21875 205.773438 550.132812 C 205.34375 550.132812 205.34375 550.21875 205.601562 550.480469 C 207.40625 552.460938 209.554688 553.582031 212.304688 553.839844 C 214.96875 554.097656 217.460938 554.273438 219.609375 554.183594 C 224.597656 554.097656 232.332031 554.011719 242.730469 553.925781 C 261.207031 553.753906 279.511719 554.269531 297.476562 555.476562 C 321.710938 557.117188 346.636719 554.875 369.667969 546.339844 C 377.660156 543.410156 385.996094 539.359375 392.359375 533.585938 C 395.109375 531.085938 396.570312 527.722656 394.679688 524.277344 C 393.476562 521.949219 391.757812 520.054688 389.519531 518.585938 C 389.433594 518.585938 389.347656 518.585938 389.347656 518.585938 C 389.003906 519.277344 388.488281 519.878906 387.972656 520.484375 C 383.761719 525.136719 378.003906 528.15625 372.246094 530.394531 C 366.316406 532.722656 360.214844 534.621094 353.941406 536 C 340.449219 539.015625 326.867188 540.738281 313.03125 540.996094 C 298.335938 541.257812 284.242188 540.308594 269.800781 539.878906 C 247.714844 539.273438 225.714844 539.445312 203.625 540.394531 C 203.539062 540.394531 203.453125 540.480469 203.453125 540.566406 C 202.851562 542.375 202.9375 544.789062 203.453125 546.6875 C 203.539062 546.945312 203.710938 547.117188 203.96875 547.03125 C 215.914062 546.429688 227.863281 546.167969 239.808594 546.253906 C 257.597656 546.429688 271.863281 547.03125 285.617188 547.980469 C 292.75 548.496094 298.164062 548.753906 301.859375 548.839844 C 313.03125 549.101562 323.171875 548.152344 334.6875 546.601562 C 341.910156 545.652344 346.636719 544.960938 348.871094 544.617188 C 349.386719 544.53125 349.816406 544.617188 349.988281 544.960938 C 350.074219 545.222656 350.160156 545.394531 350.074219 545.480469 Z M 303.234375 527.121094 C 303.234375 524.707031 301.257812 522.726562 298.851562 522.726562 C 296.445312 522.726562 294.46875 524.707031 294.46875 527.121094 C 294.46875 529.535156 296.445312 531.515625 298.851562 531.515625 C 301.257812 531.601562 303.234375 529.621094 303.234375 527.121094 Z M 276.246094 527.207031 C 276.246094 524.792969 274.269531 522.8125 271.863281 522.8125 C 269.457031 522.8125 267.480469 524.792969 267.480469 527.207031 C 267.480469 529.621094 269.457031 531.601562 271.863281 531.601562 C 274.269531 531.601562 276.246094 529.621094 276.246094 527.207031 Z M 276.246094 527.207031 " fill-opacity="1" fill-rule="nonzero"/></g><path fill="#000000" d="M 284.671875 495.230469 C 285.015625 496.089844 285.789062 496.523438 286.390625 497.125 C 286.476562 497.210938 286.476562 497.382812 286.390625 497.46875 C 284.15625 500.230469 280.890625 495.917969 283.898438 494.453125 C 284.070312 494.367188 284.328125 494.453125 284.414062 494.625 C 284.5 494.796875 284.585938 494.972656 284.671875 495.230469 Z M 284.671875 495.230469 " fill-opacity="1" fill-rule="nonzero"/><path fill="#000000" d="M 299.28125 502.902344 C 299.882812 502.988281 299.96875 503.246094 299.625 503.675781 L 299.539062 503.761719 C 299.195312 504.195312 298.765625 504.367188 298.25 504.453125 C 297.21875 504.539062 296.445312 504.195312 296.015625 503.332031 C 295.757812 502.816406 295.757812 502.210938 296.015625 501.78125 L 296.359375 501.175781 C 296.703125 500.488281 297.046875 500.488281 297.304688 501.261719 C 297.5625 502.210938 298.25 502.726562 299.28125 502.902344 Z M 299.28125 502.902344 " fill-opacity="1" fill-rule="nonzero"/><path fill="#000000" d="M 312.085938 509.710938 C 312.171875 509.710938 312.257812 509.882812 312.171875 509.96875 C 311.3125 512.382812 307.789062 511.433594 308.132812 508.933594 C 308.21875 508.332031 308.648438 507.8125 309.25 507.554688 C 309.421875 507.46875 309.59375 507.554688 309.679688 507.726562 C 310.453125 508.847656 310.796875 509.191406 312.085938 509.710938 Z M 312.085938 509.710938 " fill-opacity="1" fill-rule="nonzero"/><path fill="#000000" d="M 324.460938 513.328125 C 325.234375 514.449219 326.265625 514.710938 327.46875 515.226562 C 327.554688 515.226562 327.640625 515.398438 327.554688 515.484375 C 326.179688 518.15625 322.570312 516.347656 324.117188 513.328125 C 324.117188 513.242188 324.289062 513.242188 324.460938 513.328125 C 324.375 513.328125 324.460938 513.328125 324.460938 513.328125 Z M 324.460938 513.328125 " fill-opacity="1" fill-rule="nonzero"/><path fill="#000000" d="M 339.847656 518.070312 C 340.707031 518.847656 341.566406 519.277344 342.769531 519.191406 C 342.941406 519.191406 343.027344 519.277344 343.027344 519.449219 C 342.597656 522.898438 337.441406 521.085938 339.503906 518.070312 C 339.503906 517.984375 339.675781 517.898438 339.847656 518.070312 C 339.761719 517.984375 339.761719 518.070312 339.847656 518.070312 Z M 339.847656 518.070312 " fill-opacity="1" fill-rule="nonzero"/><path fill="#000000" d="M 299.074219 525.613281 C 299.289062 525.660156 299.484375 525.742188 299.660156 525.867188 C 299.839844 525.988281 299.988281 526.140625 300.105469 526.324219 C 300.222656 526.507812 300.300781 526.703125 300.34375 526.917969 C 300.382812 527.132812 300.378906 527.34375 300.332031 527.558594 C 300.289062 527.769531 300.203125 527.964844 300.082031 528.144531 C 299.960938 528.324219 299.808594 528.472656 299.625 528.589844 C 299.445312 528.707031 299.246094 528.785156 299.035156 528.828125 C 298.820312 528.867188 298.609375 528.863281 298.398438 528.816406 C 298.183594 528.773438 297.988281 528.6875 297.8125 528.566406 C 297.632812 528.441406 297.484375 528.289062 297.367188 528.109375 C 297.25 527.925781 297.171875 527.726562 297.128906 527.515625 C 297.089844 527.300781 297.09375 527.089844 297.140625 526.875 C 297.183594 526.664062 297.269531 526.46875 297.390625 526.289062 C 297.511719 526.109375 297.664062 525.960938 297.847656 525.84375 C 298.027344 525.726562 298.226562 525.644531 298.4375 525.605469 C 298.652344 525.566406 298.863281 525.570312 299.074219 525.613281 Z M 299.074219 525.613281 " fill-opacity="1" fill-rule="nonzero"/><path fill="#000000" d="M 273.496094 527.292969 C 273.496094 527.511719 273.457031 527.71875 273.375 527.917969 C 273.289062 528.121094 273.171875 528.296875 273.019531 528.453125 C 272.867188 528.605469 272.691406 528.722656 272.488281 528.804688 C 272.289062 528.890625 272.082031 528.929688 271.863281 528.929688 C 271.648438 528.929688 271.441406 528.890625 271.238281 528.804688 C 271.039062 528.722656 270.863281 528.605469 270.710938 528.453125 C 270.558594 528.296875 270.4375 528.121094 270.355469 527.917969 C 270.273438 527.71875 270.230469 527.511719 270.230469 527.292969 C 270.230469 527.074219 270.273438 526.867188 270.355469 526.667969 C 270.4375 526.464844 270.558594 526.289062 270.710938 526.136719 C 270.863281 525.980469 271.039062 525.863281 271.238281 525.78125 C 271.441406 525.695312 271.648438 525.65625 271.863281 525.65625 C 272.082031 525.65625 272.289062 525.695312 272.488281 525.78125 C 272.691406 525.863281 272.867188 525.980469 273.019531 526.136719 C 273.171875 526.289062 273.289062 526.464844 273.375 526.667969 C 273.457031 526.867188 273.496094 527.074219 273.496094 527.292969 Z M 273.496094 527.292969 " fill-opacity="1" fill-rule="nonzero"/><g clip-path="url(#a21a296fc2)"><path fill="#000000" d="M 612.652344 532.429688 C 611.421875 520.425781 586.414062 508.582031 578.425781 507.617188 C 575.648438 507.371094 574.515625 508.324219 573.523438 509.847656 C 564.828125 508.957031 555.417969 508.253906 543.371094 506.15625 C 527.691406 503.378906 504.605469 492.042969 484.242188 482.042969 C 458.96875 469.632812 445.300781 463.21875 440.042969 466.519531 C 439.066406 467.078125 438.566406 468.074219 438.285156 469.199219 C 434.851562 477.957031 423.992188 508.050781 437.03125 518.890625 C 437.03125 518.890625 437.75 526.183594 437.75 526.183594 C 438.148438 530.242188 440.878906 533.550781 444.699219 534.617188 C 449.621094 535.992188 458.722656 537.941406 470.730469 537.941406 C 473.941406 537.941406 477.378906 537.789062 480.980469 537.460938 C 489.234375 540.449219 496.628906 543.679688 500.777344 547.574219 C 509.972656 556.207031 543.140625 560.195312 568.382812 560.195312 C 591.492188 560.613281 616.613281 556.488281 612.652344 532.429688 Z M 577.804688 512.269531 C 581.976562 512.820312 596.914062 518.445312 599.808594 524 C 597.875 524.371094 592.644531 523.605469 587.496094 522.175781 C 586.230469 520.09375 582.738281 515.105469 577.421875 513.265625 C 577.390625 512.953125 577.445312 512.257812 577.804688 512.269531 Z M 564.894531 521.144531 C 566.179688 521.398438 570.847656 522.632812 573.628906 526.789062 C 571.027344 533.96875 565.238281 541.765625 558.707031 546.832031 C 549.960938 542.601562 546.410156 532.710938 545.363281 529.050781 C 550.742188 525.160156 556.707031 522.761719 564.894531 521.144531 Z M 577.359375 523.808594 C 575.496094 521.148438 573.109375 519.429688 570.941406 518.328125 L 573.050781 517.265625 C 577.128906 517.070312 580.300781 520.273438 582.140625 522.671875 Z M 482.160156 486.253906 C 502.804688 496.390625 526.207031 507.882812 542.542969 510.777344 C 552.460938 512.53125 562.65625 513.511719 568.875 514.105469 L 564.054688 516.527344 C 554.558594 518.394531 547.503906 521.402344 541.253906 526.261719 C 540.554688 526.804688 540.21875 527.691406 540.386719 528.558594 C 532.421875 529.0625 504.519531 529.117188 480.027344 508.308594 C 450.167969 482.902344 443.199219 473.734375 442.777344 470.675781 C 446.546875 468.183594 467.320312 479.277344 482.160156 486.253906 Z M 442.4375 525.726562 L 442.128906 522.613281 C 448.984375 526.671875 458.53125 529.886719 468.546875 533.207031 C 458.199219 532.992188 450.335938 531.316406 445.96875 530.097656 C 444.0625 529.566406 442.640625 527.808594 442.4375 525.726562 Z M 593.9375 553.15625 C 580.179688 557.832031 516.152344 555.558594 504.007812 544.15625 C 496.972656 537.476562 481.65625 532.660156 470.792969 529.007812 C 458.097656 524.796875 444.96875 520.445312 439.335938 514.683594 C 432.769531 507.980469 435.40625 491.453125 440.578125 476.539062 C 444.683594 482.761719 454.777344 492.996094 476.972656 511.878906 C 499.167969 530.738281 523.480469 533.4375 535.585938 533.4375 C 538.320312 533.4375 540.421875 533.300781 541.746094 533.179688 C 543.777344 538.742188 548.449219 547.8125 558.132812 551.710938 C 558.878906 552.015625 559.734375 551.914062 560.394531 551.4375 C 568.152344 545.847656 574.921875 536.957031 578.015625 528.480469 L 585.898438 526.601562 C 590.796875 527.699219 600.527344 531.101562 604.199219 526.421875 C 606.28125 528.53125 607.578125 530.816406 608.019531 533.265625 C 609.304688 540.285156 608.636719 548.132812 593.9375 553.15625 Z M 593.9375 553.15625 " fill-opacity="1" fill-rule="nonzero"/></g><g clip-path="url(#0ca737b9f3)"><path fill="#000000" d="M 174.816406 536.417969 C 173.921875 535.1875 172.695312 534.519531 171.242188 534.292969 C 170.015625 532.28125 162.867188 522 150.359375 522 C 143.65625 522 135.730469 521.664062 127.464844 519.316406 C 117.746094 516.523438 109.484375 511.269531 102.894531 503.777344 C 97.757812 497.964844 94.183594 491.148438 92.171875 483.210938 C 89.828125 474.15625 89.382812 463.871094 90.722656 451.464844 C 91.503906 444.980469 92.285156 438.945312 93.066406 433.242188 C 95.410156 416.253906 97.308594 402.726562 93.960938 391.886719 C 90.050781 379.03125 78.882812 369.082031 64.699219 365.617188 L 64.699219 360.921875 C 64.699219 360.140625 64.03125 359.46875 63.246094 359.46875 L 46.71875 359.46875 C 45.9375 359.46875 45.265625 360.140625 45.265625 360.921875 L 45.265625 365.503906 C 37.894531 367.292969 30.972656 371.207031 25.609375 376.792969 C 19.804688 382.832031 16.566406 390.207031 16.566406 397.472656 C 16.566406 413.011719 18.910156 430.113281 21.03125 445.316406 C 22.261719 454.484375 23.378906 462.417969 23.710938 468.230469 C 23.824219 469.347656 23.824219 470.355469 23.9375 471.472656 C 24.046875 472.589844 24.046875 473.597656 24.160156 474.714844 C 24.160156 474.828125 24.046875 475.050781 24.046875 475.164062 C 24.046875 475.386719 24.046875 475.609375 24.160156 475.832031 C 24.71875 486.003906 24.605469 496.402344 19.582031 506.683594 C 16.453125 513.167969 15.78125 520.546875 16.898438 526.46875 C 16.898438 526.46875 16.898438 526.582031 16.898438 526.582031 C 17.457031 529.375 18.351562 531.835938 19.46875 533.625 L 26.167969 556.09375 C 26.839844 558.441406 29.074219 560.117188 31.53125 560.117188 L 58.445312 560.117188 C 61.347656 560.117188 63.804688 557.769531 64.03125 554.863281 L 64.8125 541.5625 C 66.710938 542.34375 68.386719 543.238281 69.949219 544.132812 C 72.742188 545.808594 75.308594 547.375 77.765625 549.050781 C 84.019531 553.074219 89.828125 556.875 97.308594 559 C 101.777344 560.226562 106.578125 560.898438 111.828125 560.898438 C 116.40625 560.898438 121.320312 560.453125 126.90625 559.558594 C 149.128906 555.867188 165.324219 548.601562 172.917969 544.691406 C 174.371094 544.019531 175.375 542.679688 175.710938 541.113281 C 176.046875 539.214844 175.710938 537.648438 174.816406 536.417969 Z M 100.773438 505.679688 C 107.695312 513.613281 116.40625 519.09375 126.683594 522 C 135.28125 524.457031 143.546875 524.792969 150.359375 524.792969 C 159.738281 524.792969 165.882812 531.835938 168.117188 534.742188 C 136.398438 550.054688 117.191406 550.503906 112.050781 550.28125 C 98.652344 549.722656 88.488281 544.132812 78.660156 538.65625 C 72.515625 535.300781 66.261719 531.835938 59.226562 529.601562 C 58.222656 529.265625 57.328125 529.042969 56.324219 528.816406 L 56.324219 511.492188 C 59.785156 513.054688 63.359375 513.949219 66.820312 513.949219 C 67.828125 513.949219 68.832031 513.839844 69.835938 513.726562 C 75.199219 512.832031 79.105469 509.589844 81.339844 504.335938 C 83.574219 499.082031 82.011719 493.496094 80.445312 488.015625 C 78.4375 480.976562 76.761719 474.9375 82.792969 470.242188 C 84.691406 468.789062 86.03125 467.113281 87.035156 465.4375 C 87.148438 472.257812 87.816406 478.292969 89.382812 483.992188 C 91.613281 492.375 95.300781 499.53125 100.773438 505.679688 Z M 91.28125 392.667969 C 94.40625 402.953125 92.621094 416.253906 90.273438 432.910156 C 89.492188 438.722656 88.597656 444.644531 87.929688 451.242188 C 87.816406 452.582031 87.707031 453.8125 87.59375 455.042969 C 87.59375 455.152344 87.59375 455.265625 87.59375 455.375 C 87.59375 455.488281 87.371094 463.089844 81.226562 468.007812 C 73.746094 473.933594 75.980469 481.757812 77.988281 488.800781 C 79.441406 493.941406 80.78125 498.859375 78.996094 503.21875 C 77.097656 507.578125 73.96875 510.148438 69.613281 510.933594 C 65.59375 511.601562 60.902344 510.597656 56.660156 508.363281 L 56.660156 416.476562 L 59.117188 416.476562 C 62.355469 416.476562 65.035156 413.792969 65.035156 410.550781 L 65.035156 368.523438 C 77.65625 371.765625 87.707031 380.929688 91.28125 392.667969 Z M 48.058594 362.261719 L 61.796875 362.261719 L 61.796875 410.441406 C 61.796875 412.117188 60.457031 413.457031 58.78125 413.457031 L 51.1875 413.457031 C 49.511719 413.457031 48.171875 412.117188 48.171875 410.441406 L 48.171875 362.261719 Z M 23.9375 444.757812 C 21.8125 429.667969 19.46875 412.675781 19.46875 397.363281 C 19.46875 390.878906 22.371094 384.171875 27.734375 378.695312 C 32.421875 373.777344 38.789062 370.085938 45.378906 368.410156 L 45.378906 410.664062 C 45.378906 413.90625 48.058594 416.589844 51.296875 416.589844 L 53.644531 416.589844 L 53.644531 506.910156 C 52.191406 505.902344 50.738281 504.671875 49.621094 503.332031 C 45.042969 498.300781 42.25 491.816406 39.570312 485.558594 L 39.234375 484.886719 C 36.445312 478.292969 32.199219 474.492188 27.0625 473.820312 C 27.0625 472.925781 26.953125 472.144531 26.953125 471.25 C 26.839844 470.132812 26.839844 469.125 26.726562 468.007812 C 26.28125 461.972656 25.164062 454.035156 23.9375 444.757812 Z M 22.261719 507.578125 C 27.398438 497.183594 27.621094 486.675781 27.175781 476.503906 C 31.976562 477.398438 34.992188 481.871094 36.554688 485.78125 L 36.890625 486.453125 C 39.683594 492.9375 42.585938 499.640625 47.5 505.007812 C 49.289062 506.910156 51.410156 508.585938 53.644531 509.925781 L 53.644531 528.035156 C 50.179688 527.253906 46.832031 526.804688 43.703125 526.246094 C 36.332031 525.128906 29.964844 524.121094 27.957031 520.546875 C 26.839844 518.535156 25.835938 513.054688 29.40625 509.144531 C 29.964844 508.585938 29.964844 507.691406 29.296875 507.132812 C 28.738281 506.574219 27.84375 506.574219 27.285156 507.242188 C 22.820312 512.050781 23.710938 518.757812 25.386719 521.886719 C 26.058594 523.117188 27.0625 524.121094 28.292969 525.015625 C 24.382812 524.792969 21.253906 524.570312 19.582031 524.570312 C 18.910156 519.429688 19.582031 513.167969 22.261719 507.578125 Z M 61.238281 554.414062 C 61.125 555.867188 59.898438 556.988281 58.445312 556.988281 L 31.640625 556.988281 C 30.414062 556.988281 29.40625 556.203125 28.960938 554.972656 L 22.820312 534.183594 C 25.835938 534.292969 32.089844 534.40625 39.234375 535.300781 C 48.171875 536.308594 55.875 537.984375 62.019531 540.21875 Z M 173.03125 540.21875 C 172.917969 541 172.359375 541.5625 171.691406 541.894531 C 164.207031 545.808594 148.347656 552.851562 126.460938 556.539062 C 101.332031 560.789062 91.613281 554.414062 79.328125 546.367188 C 76.871094 544.800781 74.304688 543.125 71.511719 541.449219 C 55.652344 532.058594 27.0625 531.386719 21.8125 531.386719 C 21.144531 530.269531 20.695312 528.929688 20.25 527.476562 C 25.835938 527.699219 43.257812 528.59375 54.648438 531.277344 C 55.875 531.613281 57.21875 531.949219 58.445312 532.394531 C 65.144531 534.519531 71.175781 537.761719 77.429688 541.226562 C 87.59375 546.8125 98.09375 552.515625 112.050781 553.1875 C 120.988281 553.632812 132.15625 551.621094 145.222656 547.261719 C 155.832031 543.796875 164.878906 539.546875 169.457031 537.425781 C 170.574219 536.867188 171.914062 537.199219 172.582031 538.207031 C 173.03125 538.65625 173.140625 539.4375 173.03125 540.21875 Z M 173.03125 540.21875 " fill-opacity="1" fill-rule="nonzero"/></g><path fill="#000000" d="M 26.726562 538.765625 C 26.617188 539.546875 27.0625 540.21875 27.84375 540.441406 L 56.101562 545.472656 L 56.101562 547.375 L 30.75 545.695312 C 29.964844 545.695312 29.296875 546.253906 29.296875 547.039062 C 29.296875 547.820312 29.855469 548.492188 30.636719 548.492188 L 56.210938 550.167969 L 56.210938 551.957031 L 31.308594 551.957031 C 30.523438 551.957031 29.855469 552.628906 29.855469 553.410156 C 29.855469 554.191406 30.523438 554.863281 31.308594 554.863281 L 57.550781 554.863281 C 58.332031 554.863281 59.003906 554.191406 59.003906 553.410156 L 59.003906 544.242188 C 59.003906 543.574219 58.558594 543.015625 57.886719 542.902344 L 28.515625 537.648438 C 27.621094 537.425781 26.839844 537.984375 26.726562 538.765625 Z M 26.726562 538.765625 " fill-opacity="1" fill-rule="nonzero"/><path fill="#000000" d="M 68.941406 377.464844 C 77.429688 380.820312 82.121094 387.75 84.019531 400.042969 C 84.132812 400.714844 84.691406 401.273438 85.359375 401.273438 C 85.472656 401.273438 85.472656 401.273438 85.582031 401.273438 C 86.367188 401.164062 86.925781 400.492188 86.8125 399.710938 C 84.800781 386.519531 79.441406 378.582031 69.949219 374.894531 C 69.277344 374.558594 68.386719 375.003906 68.160156 375.675781 C 67.9375 376.457031 68.273438 377.242188 68.941406 377.464844 Z M 68.941406 377.464844 " fill-opacity="1" fill-rule="nonzero"/><path fill="#000000" d="M 41.023438 377.464844 C 41.691406 377.128906 42.140625 376.347656 41.804688 375.675781 C 41.46875 375.003906 40.6875 374.558594 40.019531 374.894531 C 30.636719 378.582031 25.277344 386.40625 23.265625 399.597656 C 23.152344 400.378906 23.710938 401.050781 24.496094 401.164062 C 24.605469 401.164062 24.605469 401.164062 24.71875 401.164062 C 25.386719 401.164062 25.945312 400.714844 26.058594 399.933594 C 27.84375 387.75 32.535156 380.820312 41.023438 377.464844 Z M 41.023438 377.464844 " fill-opacity="1" fill-rule="nonzero"/><g clip-path="url(#e9c0feefff)"><path fill="#000000" d="M 749.523438 560.671875 C 746.601562 560.671875 743.578125 560.574219 740.527344 560.382812 C 739.71875 560.332031 739.019531 559.800781 738.75 559.035156 L 737.027344 554.082031 L 735.511719 558.425781 C 735.203125 559.308594 734.324219 559.867188 733.390625 559.765625 C 729.9375 559.390625 726.34375 558.894531 722.707031 558.289062 C 722 558.167969 721.40625 557.6875 721.15625 557.019531 C 721.148438 557 721.136719 556.972656 721.128906 556.957031 L 720.128906 554.082031 L 719.46875 555.976562 C 719.140625 556.925781 718.164062 557.484375 717.179688 557.292969 C 710.832031 556.066406 705.300781 554.710938 701.257812 553.730469 C 699.085938 553.199219 696.859375 552.65625 695.414062 552.371094 L 695.414062 558.476562 C 695.414062 559.589844 694.511719 560.492188 693.398438 560.492188 L 644.179688 560.492188 C 643.0625 560.492188 642.160156 559.589844 642.160156 558.476562 L 642.160156 543.25 C 641.910156 536.617188 645.214844 529.933594 645.359375 529.652344 C 645.855469 528.65625 647.066406 528.253906 648.066406 528.75 C 649.058594 529.246094 649.464844 530.457031 648.96875 531.449219 C 648.9375 531.507812 645.972656 537.53125 646.195312 543.128906 C 646.195312 543.15625 646.195312 543.179688 646.195312 543.207031 L 646.195312 556.460938 L 691.386719 556.460938 L 691.386719 550.40625 C 691.386719 549.730469 691.695312 549.097656 692.230469 548.675781 C 693.496094 547.683594 695.171875 548.09375 702.222656 549.816406 C 705.851562 550.699219 710.695312 551.886719 716.238281 553 L 718.226562 547.289062 C 718.511719 546.476562 719.273438 545.933594 720.132812 545.933594 C 720.988281 545.933594 721.757812 546.476562 722.035156 547.289062 L 724.550781 554.507812 C 727.152344 554.929688 729.726562 555.285156 732.234375 555.582031 L 735.125 547.289062 C 735.40625 546.476562 736.171875 545.933594 737.03125 545.933594 C 737.886719 545.933594 738.65625 546.476562 738.933594 547.289062 L 742.121094 556.4375 C 744.371094 556.5625 746.59375 556.628906 748.765625 556.640625 L 752.023438 547.289062 C 752.304688 546.476562 753.070312 545.933594 753.925781 545.933594 C 754.785156 545.933594 755.550781 546.476562 755.832031 547.289062 L 758.960938 556.273438 C 772.238281 555.199219 783.820312 551.765625 793.425781 546.058594 L 793.191406 527.597656 C 793.175781 526.488281 794.070312 525.574219 795.183594 525.558594 C 795.191406 525.558594 795.199219 525.558594 795.207031 525.558594 C 796.308594 525.558594 797.210938 526.445312 797.222656 527.550781 L 797.472656 547.160156 C 797.484375 547.863281 797.117188 548.523438 796.519531 548.898438 C 785.804688 555.53125 772.742188 559.40625 757.699219 560.410156 C 756.796875 560.46875 755.957031 559.921875 755.660156 559.066406 L 753.925781 554.089844 L 752.101562 559.324219 C 751.824219 560.132812 751.0625 560.671875 750.207031 560.675781 C 749.980469 560.671875 749.75 560.671875 749.523438 560.671875 Z M 749.523438 560.671875 " fill-opacity="1" fill-rule="nonzero"/></g><g clip-path="url(#aac1587483)"><path fill="#000000" d="M 748.75 542.148438 C 733.300781 542.148438 716.734375 539.683594 700.6875 537.292969 C 682.722656 534.613281 664.148438 531.847656 647.246094 532.5625 C 646.332031 532.601562 645.507812 532.023438 645.234375 531.15625 C 644.996094 530.390625 639.476562 512.242188 646.742188 487.554688 C 649.257812 478.992188 648.0625 472.761719 647.269531 468.632812 C 646.683594 465.597656 646.265625 463.410156 647.9375 461.957031 C 650.027344 460.132812 653.6875 461.15625 664.457031 464.792969 C 672.070312 467.363281 687.898438 464.664062 699.320312 456.554688 C 699.351562 456.53125 699.382812 456.507812 699.414062 456.492188 C 699.605469 456.367188 704.214844 453.53125 708.960938 455.269531 C 712.21875 456.460938 714.613281 459.414062 716.082031 464.039062 C 716.109375 464.117188 716.128906 464.195312 716.144531 464.273438 C 716.160156 464.371094 718.132812 474.347656 725.65625 484.921875 C 735.683594 499.023438 750.335938 507.472656 769.191406 510.03125 C 771.765625 510.382812 774.445312 510.378906 777.046875 510.378906 C 781.894531 510.378906 786.488281 510.371094 790.234375 512.539062 C 794.527344 515.023438 796.746094 519.761719 797.21875 527.445312 C 797.261719 528.140625 796.945312 528.808594 796.375 529.210938 C 784.660156 537.519531 770.003906 541.738281 751.566406 542.113281 C 750.632812 542.136719 749.691406 542.148438 748.75 542.148438 Z M 652.828125 528.421875 C 668.484375 528.421875 685.125 530.898438 701.28125 533.304688 C 735.84375 538.453125 768.515625 543.316406 793.109375 526.578125 C 792.015625 514.398438 786.015625 514.410156 777.050781 514.410156 C 774.320312 514.414062 771.492188 514.414062 768.648438 514.027344 C 743.636719 510.632812 729.617188 497.511719 722.257812 487.105469 C 714.667969 476.371094 712.46875 466.457031 712.203125 465.152344 C 711.132812 461.835938 709.578125 459.785156 707.574219 459.054688 C 704.871094 458.0625 701.9375 459.683594 701.59375 459.882812 C 695.71875 464.042969 688.390625 467.179688 680.960938 468.71875 C 674.082031 470.144531 667.597656 470.101562 663.167969 468.609375 C 659.207031 467.273438 652.796875 465.109375 650.789062 465.078125 C 650.820312 465.734375 651.046875 466.898438 651.234375 467.875 C 652.046875 472.105469 653.410156 479.191406 650.613281 488.691406 C 644.839844 508.3125 647.597656 523.785156 648.703125 528.484375 C 650.070312 528.441406 651.445312 528.421875 652.828125 528.421875 Z M 652.828125 528.421875 " fill-opacity="1" fill-rule="nonzero"/></g><path fill="#000000" d="M 678.953125 534.246094 C 678.875 534.246094 678.792969 534.242188 678.710938 534.230469 C 666.105469 532.722656 656.105469 532.191406 647.25 532.566406 C 646.339844 532.617188 645.511719 532.027344 645.238281 531.15625 C 645.035156 530.511719 640.347656 515.113281 645.226562 493.40625 C 645.433594 492.492188 646.242188 491.839844 647.179688 491.832031 L 647.292969 491.832031 C 647.371094 491.832031 647.449219 491.828125 647.523438 491.828125 C 666.316406 491.828125 681.609375 507.09375 681.609375 525.859375 C 681.609375 528.136719 681.382812 530.414062 680.933594 532.628906 C 680.738281 533.578125 679.898438 534.246094 678.953125 534.246094 Z M 652.867188 528.421875 C 660.007812 528.421875 667.941406 528.9375 677.285156 530.007812 C 677.472656 528.636719 677.570312 527.25 677.570312 525.859375 C 677.570312 509.75 664.789062 496.566406 648.820312 495.882812 C 645.503906 512.035156 647.734375 524.378906 648.707031 528.484375 C 650.0625 528.441406 651.453125 528.421875 652.867188 528.421875 Z M 652.867188 528.421875 " fill-opacity="1" fill-rule="nonzero"/><path fill="#000000" d="M 715.402344 471.167969 C 714.511719 471.167969 713.695312 470.570312 713.453125 469.671875 L 707.730469 448.351562 C 706.867188 445.125 703.535156 443.207031 700.304688 444.070312 L 692.503906 446.15625 C 691.429688 446.449219 690.320312 445.808594 690.035156 444.734375 C 689.746094 443.660156 690.386719 442.554688 691.460938 442.269531 L 699.261719 440.183594 C 704.636719 438.742188 710.1875 441.941406 711.628906 447.3125 L 717.351562 468.632812 C 717.636719 469.707031 717 470.8125 715.925781 471.097656 C 715.75 471.144531 715.574219 471.167969 715.402344 471.167969 Z M 715.402344 471.167969 " fill-opacity="1" fill-rule="nonzero"/><path fill="#000000" d="M 649.023438 465.773438 C 648.988281 465.773438 648.953125 465.773438 648.914062 465.769531 C 647.800781 465.710938 646.949219 464.761719 647.007812 463.652344 L 648.003906 445.179688 C 648.046875 444.421875 648.511719 443.753906 649.203125 443.449219 C 649.898438 443.140625 650.703125 443.25 651.292969 443.722656 C 657.695312 448.910156 682.496094 444.421875 691.511719 442.253906 C 692.59375 441.992188 693.683594 442.65625 693.945312 443.738281 C 694.207031 444.820312 693.539062 445.90625 692.457031 446.167969 C 689.273438 446.933594 663.460938 452.914062 651.867188 448.5625 L 651.042969 463.867188 C 650.980469 464.941406 650.085938 465.773438 649.023438 465.773438 Z M 649.023438 465.773438 " fill-opacity="1" fill-rule="nonzero"/><path fill="#000000" d="M 660.390625 498.539062 C 659.992188 498.539062 659.59375 498.421875 659.242188 498.179688 C 658.328125 497.546875 658.09375 496.296875 658.730469 495.378906 C 659.253906 494.621094 659.851562 493.90625 660.503906 493.253906 C 664.535156 489.230469 670.855469 487.632812 676.96875 486.085938 C 682.550781 484.671875 688.320312 483.214844 691.570312 479.972656 C 695.539062 476.007812 696.214844 469.207031 693.339844 462.226562 C 692.917969 461.195312 693.40625 460.019531 694.441406 459.59375 C 695.46875 459.171875 696.648438 459.660156 697.074219 460.695312 C 700.582031 469.207031 699.566406 477.691406 694.425781 482.824219 C 690.394531 486.847656 684.074219 488.445312 677.960938 489.992188 C 672.378906 491.40625 666.609375 492.863281 663.363281 496.105469 C 662.882812 496.582031 662.441406 497.109375 662.054688 497.671875 C 661.65625 498.234375 661.03125 498.539062 660.390625 498.539062 Z M 660.390625 498.539062 " fill-opacity="1" fill-rule="nonzero"/><path fill="#000000" d="M 737.851562 541.78125 C 736.792969 541.78125 735.902344 540.953125 735.839844 539.878906 C 735.777344 538.765625 736.625 537.816406 737.742188 537.757812 C 740.117188 537.625 742.148438 536.78125 743.613281 535.320312 C 745.902344 533.035156 746.917969 529.054688 747.992188 524.832031 C 749.152344 520.273438 750.351562 515.554688 753.421875 512.488281 C 755.691406 510.222656 758.769531 508.96875 762.332031 508.859375 C 763.4375 508.832031 764.378906 509.699219 764.410156 510.8125 C 764.445312 511.921875 763.570312 512.851562 762.453125 512.882812 C 759.945312 512.960938 757.804688 513.808594 756.277344 515.335938 C 753.992188 517.617188 752.976562 521.601562 751.898438 525.820312 C 750.738281 530.382812 749.539062 535.097656 746.46875 538.164062 C 744.292969 540.335938 741.351562 541.585938 737.96875 541.777344 C 737.929688 541.78125 737.890625 541.78125 737.851562 541.78125 Z M 737.851562 541.78125 " fill-opacity="1" fill-rule="nonzero"/><path fill="#000000" d="M 708.441406 491.238281 C 704.933594 491.238281 702.074219 488.386719 702.074219 484.878906 C 702.074219 481.371094 704.929688 478.523438 708.441406 478.523438 C 711.953125 478.523438 714.808594 481.371094 714.808594 484.878906 C 714.808594 488.386719 711.949219 491.238281 708.441406 491.238281 Z M 708.441406 482.554688 C 707.15625 482.554688 706.109375 483.601562 706.109375 484.882812 C 706.109375 486.167969 707.15625 487.210938 708.441406 487.210938 C 709.726562 487.210938 710.773438 486.167969 710.773438 484.882812 C 710.773438 483.601562 709.726562 482.554688 708.441406 482.554688 Z M 708.441406 482.554688 " fill-opacity="1" fill-rule="nonzero"/><path fill="#000000" d="M 734.71875 517.78125 C 731.210938 517.78125 728.351562 514.929688 728.351562 511.421875 C 728.351562 507.914062 731.207031 505.066406 734.71875 505.066406 C 738.230469 505.066406 741.082031 507.917969 741.082031 511.421875 C 741.082031 514.925781 738.226562 517.78125 734.71875 517.78125 Z M 734.71875 509.097656 C 733.433594 509.097656 732.386719 510.144531 732.386719 511.425781 C 732.386719 512.710938 733.433594 513.753906 734.71875 513.753906 C 736.003906 513.753906 737.050781 512.710938 737.050781 511.425781 C 737.050781 510.140625 736.003906 509.097656 734.71875 509.097656 Z M 734.71875 509.097656 " fill-opacity="1" fill-rule="nonzero"/><path fill="#000000" d="M 719.257812 506.324219 C 715.746094 506.324219 712.890625 503.476562 712.890625 499.96875 C 712.890625 496.460938 715.742188 493.609375 719.257812 493.609375 C 722.769531 493.609375 725.625 496.460938 725.625 499.96875 C 725.625 503.476562 722.765625 506.324219 719.257812 506.324219 Z M 719.257812 497.644531 C 717.972656 497.644531 716.925781 498.6875 716.925781 499.972656 C 716.925781 501.253906 717.972656 502.300781 719.257812 502.300781 C 720.542969 502.300781 721.589844 501.253906 721.589844 499.972656 C 721.585938 498.683594 720.542969 497.644531 719.257812 497.644531 Z M 719.257812 497.644531 " fill-opacity="1" fill-rule="nonzero"/><path fill="#000000" d="M 712.285156 484.863281 C 711.5625 484.863281 710.863281 484.472656 710.5 483.792969 C 709.980469 482.808594 710.355469 481.589844 711.339844 481.070312 L 718.667969 477.1875 C 719.652344 476.667969 720.875 477.039062 721.394531 478.023438 C 721.917969 479.003906 721.542969 480.226562 720.558594 480.746094 L 713.230469 484.628906 C 712.929688 484.785156 712.601562 484.863281 712.285156 484.863281 Z M 712.285156 484.863281 " fill-opacity="1" fill-rule="nonzero"/><path fill="#000000" d="M 722.488281 499.078125 C 721.933594 499.078125 721.386719 498.855469 720.988281 498.410156 C 720.242188 497.585938 720.308594 496.308594 721.140625 495.570312 L 727.140625 490.179688 C 727.96875 489.4375 729.246094 489.503906 729.988281 490.332031 C 730.734375 491.15625 730.667969 492.433594 729.835938 493.175781 L 723.835938 498.5625 C 723.453125 498.910156 722.96875 499.078125 722.488281 499.078125 Z M 722.488281 499.078125 " fill-opacity="1" fill-rule="nonzero"/><path fill="#000000" d="M 737.066406 509.78125 C 736.695312 509.78125 736.316406 509.679688 735.980469 509.464844 C 735.039062 508.863281 734.765625 507.617188 735.371094 506.679688 L 739.03125 500.976562 C 739.636719 500.042969 740.882812 499.769531 741.820312 500.371094 C 742.757812 500.972656 743.03125 502.214844 742.429688 503.152344 L 738.765625 508.855469 C 738.378906 509.457031 737.726562 509.78125 737.066406 509.78125 Z M 737.066406 509.78125 " fill-opacity="1" fill-rule="nonzero"/><g clip-path="url(#d556247d23)"><path fill="#000000" d="M 660.542969 319.6875 C 643.476562 294.839844 614.058594 250.859375 606.167969 231.65625 C 601.296875 219.8125 597.175781 204.359375 595.375 197.171875 L 601.574219 197.171875 C 604.261719 202.539062 612.75 219.039062 621.398438 231.261719 C 636.601562 252.75 676.257812 296.027344 687.648438 308.359375 C 682.765625 310.816406 673.398438 315.203125 660.542969 319.6875 Z M 629.347656 342.976562 C 617.164062 313.988281 594.726562 258.855469 590.582031 236.574219 C 587.992188 222.621094 587.199219 204.492188 586.976562 197.171875 L 588.332031 197.171875 C 589.882812 203.535156 594.320312 220.832031 599.84375 234.253906 C 607.886719 253.839844 636.4375 296.683594 653.777344 321.949219 C 655.21875 324.050781 656.582031 326.023438 657.847656 327.859375 C 660.53125 331.734375 662.785156 334.964844 664.441406 337.324219 C 658.109375 338.589844 646 340.804688 629.347656 342.976562 Z M 629.179688 360.066406 C 619.667969 361.347656 596.011719 364.164062 571.40625 364.164062 C 550.503906 364.164062 524.066406 361.246094 513.667969 359.992188 C 514.460938 358.144531 515.488281 355.765625 516.6875 352.9375 C 517.53125 350.949219 518.472656 348.738281 519.484375 346.347656 C 531.695312 317.367188 554.605469 261.203125 558.949219 237.828125 C 561.683594 223.105469 562.46875 204.53125 562.683594 197.171875 L 580.132812 197.171875 C 580.34375 204.53125 581.125 223.105469 583.859375 237.828125 C 588.082031 260.554688 609.859375 314.265625 622.289062 343.859375 C 623.273438 346.203125 624.195312 348.394531 625.050781 350.40625 C 626.742188 354.402344 628.152344 357.691406 629.179688 360.066406 Z M 478.054688 337.773438 C 479.921875 335.113281 482.652344 331.203125 485.949219 326.429688 C 487.226562 324.574219 488.589844 322.597656 490.027344 320.507812 C 507.4375 295.082031 535.066406 253.472656 542.972656 234.253906 C 548.492188 220.832031 552.929688 203.535156 554.480469 197.171875 L 555.835938 197.171875 C 555.613281 204.492188 554.824219 222.617188 552.230469 236.574219 C 547.976562 259.488281 524.367188 317.128906 512.457031 345.363281 C 496.226562 342.890625 484.105469 339.609375 478.054688 337.773438 Z M 457.253906 308.175781 C 468.863281 295.617188 508.21875 252.644531 523.34375 231.261719 C 531.996094 219.039062 540.484375 202.539062 543.171875 197.171875 L 547.429688 197.171875 C 545.632812 204.359375 541.519531 219.804688 536.644531 231.65625 C 528.894531 250.496094 500.425781 293.210938 483.234375 318.28125 C 471.25 314.210938 462.183594 310.386719 457.253906 308.175781 Z M 535.816406 118.277344 C 536.078125 117.820312 536.234375 117.308594 536.265625 116.785156 L 537.96875 90.089844 L 543.46875 90.089844 L 546.292969 105.96875 C 546.40625 109.734375 548.425781 113.136719 551.628906 114.910156 L 571.234375 125.757812 C 572.261719 126.328125 573.515625 126.328125 574.542969 125.757812 L 594.148438 114.910156 C 597.347656 113.136719 599.371094 109.734375 599.480469 105.96875 L 602.308594 90.089844 L 607.808594 90.089844 L 609.511719 116.785156 C 609.546875 117.304688 609.699219 117.816406 609.960938 118.269531 C 610.070312 118.460938 620.921875 137.773438 610.234375 151.371094 C 606.757812 155.792969 603.402344 162.710938 601.828125 166.160156 L 543.949219 166.160156 C 542.375 162.710938 539.019531 155.792969 535.542969 151.371094 C 524.855469 137.773438 535.707031 118.460938 535.816406 118.277344 Z M 544.796875 190.335938 L 544.796875 173.558594 L 600.371094 173.558594 L 600.371094 190.335938 Z M 695.691406 306.96875 C 695.179688 306.417969 644.175781 251.613281 626.984375 227.3125 C 618.085938 214.746094 609.054688 196.855469 607.207031 193.144531 L 607.207031 170.894531 C 607.371094 170.503906 611.550781 160.761719 615.609375 155.597656 C 627.980469 139.859375 618.472656 119.738281 616.289062 115.589844 L 614.425781 86.453125 C 614.3125 84.65625 612.820312 83.253906 611.015625 83.253906 L 599.445312 83.253906 C 597.785156 83.253906 596.367188 84.441406 596.078125 86.074219 L 592.703125 105.042969 C 592.667969 105.238281 592.648438 105.441406 592.648438 105.640625 C 592.648438 107.027344 591.9375 108.316406 590.835938 108.925781 L 572.886719 118.855469 L 554.941406 108.925781 C 553.839844 108.316406 553.128906 107.027344 553.128906 105.640625 C 553.128906 105.441406 553.109375 105.238281 553.074219 105.042969 L 549.699219 86.074219 C 549.410156 84.441406 547.992188 83.253906 546.332031 83.253906 L 534.761719 83.253906 C 532.957031 83.253906 531.464844 84.65625 531.347656 86.453125 L 529.492188 115.589844 C 527.300781 119.738281 517.796875 139.859375 530.164062 155.597656 C 533.355469 159.65625 536.628906 166.566406 537.957031 169.511719 L 537.957031 192.484375 L 537.882812 192.445312 C 537.78125 192.652344 527.679688 213.296875 517.761719 227.3125 C 500.570312 251.613281 449.566406 306.417969 449.054688 306.96875 C 448.320312 307.753906 448 308.84375 448.195312 309.910156 C 448.378906 310.96875 449.058594 311.875 450.027344 312.359375 C 450.546875 312.617188 461.445312 318.035156 479.179688 324.167969 C 473.609375 332.242188 469.9375 337.425781 469.796875 337.625 C 469.179688 338.496094 469.003906 339.601562 469.324219 340.621094 C 469.644531 341.644531 470.417969 342.453125 471.417969 342.816406 C 472.40625 343.171875 486.800781 348.304688 509.679688 351.917969 C 507.203125 357.742188 505.664062 361.28125 505.582031 361.457031 C 505.15625 362.4375 505.210938 363.566406 505.742188 364.5 C 506.265625 365.4375 507.203125 366.066406 508.269531 366.210938 C 508.625 366.253906 544.453125 371 571.40625 371 C 603.683594 371 634.316406 366.242188 634.625 366.199219 C 635.667969 366.03125 636.578125 365.394531 637.085938 364.464844 C 637.597656 363.535156 637.648438 362.425781 637.222656 361.457031 C 637.132812 361.257812 635.175781 356.75 632.105469 349.503906 C 656.449219 346.265625 670.757812 342.988281 670.996094 342.929688 C 672.109375 342.675781 673.015625 341.882812 673.417969 340.816406 C 673.824219 339.753906 673.675781 338.554688 673.015625 337.625 C 672.886719 337.4375 669.621094 332.835938 664.585938 325.550781 C 683.417969 318.832031 694.414062 312.542969 694.898438 312.261719 C 695.800781 311.738281 696.414062 310.835938 696.566406 309.804688 C 696.726562 308.773438 696.402344 307.730469 695.691406 306.96875 " fill-opacity="1" fill-rule="nonzero"/></g><path fill="#000000" d="M 279.59375 214.777344 C 276.234375 214.777344 273.519531 217.496094 273.519531 220.851562 C 273.519531 224.207031 276.234375 226.925781 279.59375 226.925781 C 282.953125 226.925781 285.671875 224.207031 285.671875 220.851562 C 285.671875 217.496094 282.925781 214.777344 279.59375 214.777344 Z M 279.59375 221.800781 C 279.054688 221.800781 278.644531 221.363281 278.644531 220.851562 C 278.644531 220.3125 279.082031 219.902344 279.59375 219.902344 C 280.132812 219.902344 280.542969 220.339844 280.542969 220.851562 C 280.542969 221.390625 280.105469 221.800781 279.59375 221.800781 Z M 279.59375 221.800781 " fill-opacity="1" fill-rule="nonzero"/><path fill="#000000" d="M 282.363281 258.515625 L 278.261719 258.515625 C 276.851562 258.515625 275.699219 259.667969 275.699219 261.078125 C 275.699219 262.488281 276.851562 263.640625 278.261719 263.640625 L 282.363281 263.640625 C 283.773438 263.640625 284.925781 262.488281 284.925781 261.078125 C 284.925781 259.667969 283.796875 258.515625 282.363281 258.515625 Z M 282.363281 258.515625 " fill-opacity="1" fill-rule="nonzero"/><g clip-path="url(#0dfe5db881)"><path fill="#000000" d="M 349.660156 105.089844 L 349.789062 104.730469 L 306.921875 84.796875 L 294.257812 67.398438 L 246.625 67.398438 L 233.214844 85.796875 L 188.734375 104.578125 L 188.941406 105.296875 C 184.222656 110.472656 169.816406 133.019531 165.429688 218.007812 C 161.40625 295.746094 159.355469 318.726562 158.664062 325.003906 C 158.355469 327.671875 159.5625 330.207031 161.792969 331.640625 C 164.894531 333.613281 171.378906 336.433594 183.121094 336.433594 C 186.070312 336.433594 189.351562 336.253906 192.992188 335.84375 C 196.351562 335.460938 198.992188 332.769531 199.246094 329.4375 C 202.273438 292.054688 205.757812 253.519531 208.503906 229.203125 C 208.578125 239.015625 208.144531 248.675781 206.988281 257.851562 L 199.015625 348.347656 C 198.65625 352.320312 201.296875 355.957031 205.144531 356.878906 C 209.988281 358.007812 218.527344 359.46875 230.320312 359.46875 C 236.0625 359.46875 242.601562 359.109375 249.828125 358.210938 L 250.34375 358.082031 C 251.085938 357.828125 266.46875 352.214844 271.59375 330 C 282.695312 353.496094 299.4375 359.339844 313.308594 359.339844 C 320.613281 359.339844 327.101562 357.726562 331.507812 356.238281 C 336.277344 354.652344 339.507812 350.140625 339.535156 345.066406 C 339.664062 321.75 332.304688 255.132812 331.996094 252.519531 C 331.867188 247.855469 331.816406 243.320312 331.792969 238.839844 L 340.917969 334.128906 L 342.609375 334.589844 C 347.40625 335.921875 351.8125 336.457031 355.789062 336.457031 C 370.8125 336.457031 379.527344 328.796875 379.988281 328.386719 L 380.835938 327.644531 L 380.835938 326.515625 C 382.21875 161.382812 352.8125 110.113281 349.660156 105.089844 Z M 294.4375 76.394531 L 310.667969 98.683594 L 303.28125 102.375 L 317.460938 110.417969 C 313 121.871094 290.644531 178.0625 273.160156 199.738281 Z M 270.417969 185.414062 L 252.496094 81.542969 L 288.335938 81.542969 Z M 270.390625 72.550781 L 289.925781 72.550781 L 289.257812 76.417969 L 251.625 76.417969 L 250.957031 72.550781 Z M 246.417969 76.394531 L 267.699219 199.738281 C 250.1875 178.0625 227.832031 121.871094 223.398438 110.417969 L 237.574219 102.375 L 230.191406 98.683594 Z M 194.171875 329.027344 C 194.09375 329.925781 193.375 330.640625 192.425781 330.746094 C 175.867188 332.640625 167.867188 329.414062 164.558594 327.3125 C 163.996094 326.953125 163.6875 326.285156 163.765625 325.570312 C 164.457031 319.242188 166.535156 296.128906 170.558594 218.261719 C 174.351562 144.933594 185.558594 119.4375 190.683594 111.445312 C 194.195312 124.382812 203.785156 162.585938 207.273438 203.121094 C 203.734375 214.574219 196.964844 294.4375 194.171875 329.027344 Z M 248.90625 353.164062 C 227.753906 355.753906 213.167969 353.472656 206.324219 351.882812 C 204.964844 351.550781 204.015625 350.242188 204.144531 348.808594 L 210.347656 278.527344 L 231.320312 278.527344 C 234.855469 278.527344 237.753906 275.632812 237.753906 272.097656 L 237.753906 254.417969 L 212.554688 254.417969 C 218.5 196.125 198.761719 121.257812 194.941406 107.550781 L 227.371094 93.867188 L 222.472656 100.582031 L 226.679688 102.683594 L 217.015625 108.140625 L 217.78125 110.1875 C 218.9375 113.210938 245.828125 183.699219 266.1875 205.8125 C 260.238281 261.257812 267.289062 316.191406 267.878906 320.625 C 265.828125 345.582031 250.984375 352.34375 248.90625 353.164062 Z M 210.785156 273.402344 L 212.015625 259.539062 L 232.625 259.539062 L 232.625 272.097656 C 232.625 272.8125 232.039062 273.402344 231.320312 273.402344 Z M 327.894531 197.714844 L 327.894531 197.816406 C 326.84375 214.136719 326.382812 232.484375 326.921875 252.90625 C 326.921875 252.957031 326.996094 253.492188 327.074219 254.367188 L 301.15625 254.367188 L 301.925781 271.019531 C 302.105469 274.835938 305.308594 277.910156 309.128906 277.910156 C 309.179688 277.910156 309.230469 277.910156 309.308594 277.910156 L 329.484375 277.425781 C 331.6875 299.613281 334.507812 330.949219 334.433594 345.09375 C 334.40625 347.988281 332.613281 350.523438 329.921875 351.421875 C 314.613281 356.546875 286.902344 359.238281 273.003906 319.957031 C 272.46875 315.859375 265.671875 263.332031 271.003906 209.449219 L 271.082031 209.628906 L 273.878906 206.757812 C 294.308594 185.699219 321.921875 113.289062 323.101562 110.214844 L 323.871094 108.164062 L 314.203125 102.683594 L 318.410156 100.582031 L 313.152344 93.382812 L 343.355469 107.421875 C 340.535156 115.671875 331.226562 146.417969 327.894531 197.714844 Z M 328.945312 272.300781 L 309.179688 272.761719 C 308.050781 272.710938 307.101562 271.890625 307.050781 270.761719 L 306.539062 259.464844 L 327.636719 259.464844 C 327.972656 262.796875 328.433594 267.203125 328.945312 272.300781 Z M 375.734375 325.289062 C 372.761719 327.464844 362.042969 334.074219 345.710938 330.128906 L 333.023438 197.585938 C 336.074219 151.390625 343.96875 122.28125 347.351562 111.597656 C 354.507812 126.253906 376.785156 183.289062 375.734375 325.289062 Z M 375.734375 325.289062 " fill-opacity="1" fill-rule="nonzero"/></g><path fill="#000000" d="M 304.050781 113.441406 L 306.898438 115.160156 C 308.101562 115.878906 309.691406 115.492188 310.410156 114.289062 C 311.128906 113.085938 310.742188 111.496094 309.539062 110.777344 L 306.691406 109.0625 C 305.488281 108.34375 303.898438 108.730469 303.179688 109.933594 C 302.460938 111.136719 302.847656 112.699219 304.050781 113.441406 Z M 304.050781 113.441406 " fill-opacity="1" fill-rule="nonzero"/></svg>