<?xml version="1.0" encoding="UTF-8" standalone="no"?><svg xmlns="http://www.w3.org/2000/svg" xmlns:xlink="http://www.w3.org/1999/xlink" fill="#000000" height="121" preserveAspectRatio="xMidYMid meet" version="1" viewBox="57.7 39.5 84.6 121.0" width="84.6" zoomAndPan="magnify"><g><g id="change1_1"><path d="M 100 113.351562 C 82.613281 113.351562 68.46875 99.210938 68.46875 81.820312 C 68.46875 64.433594 82.613281 50.289062 100 50.289062 C 117.386719 50.289062 131.53125 64.433594 131.53125 81.820312 C 131.53125 99.210938 117.386719 113.351562 100 113.351562 Z M 100 39.5 C 76.664062 39.5 57.679688 58.488281 57.679688 81.820312 C 57.679688 90.5625 60.328125 98.9375 65.316406 106.066406 L 81.246094 133.667969 L 95.109375 157.671875 C 96.132812 159.441406 97.957031 160.5 100 160.5 C 101.019531 160.5 101.988281 160.238281 102.828125 159.75 C 103.667969 159.261719 104.382812 158.558594 104.890625 157.671875 L 134.683594 106.066406 C 139.683594 98.9375 142.320312 90.5625 142.320312 81.820312 C 142.320312 58.488281 123.34375 39.5 100 39.5" fill="#8a95a0"/></g><g id="change1_2"><path d="M 80.199219 97.929688 L 82.324219 99.921875 L 78.484375 101.28125 C 78.359375 101.324219 78.246094 101.222656 78.253906 101.105469 C 78.253906 101.082031 78.261719 101.054688 78.28125 101.027344 L 80.199219 97.929688" fill="#8a95a0"/></g><g id="change1_3"><path d="M 82.421875 94.351562 L 86.707031 98.367188 L 83.929688 99.351562 L 81.011719 96.621094 L 82.421875 94.351562" fill="#8a95a0"/></g><g id="change1_4"><path d="M 84.640625 90.777344 L 91.089844 96.816406 L 88.308594 97.800781 L 83.230469 93.046875 L 84.640625 90.777344" fill="#8a95a0"/></g><g id="change1_5"><path d="M 86.859375 87.199219 L 95.46875 95.265625 L 92.691406 96.246094 L 85.453125 89.46875 L 86.859375 87.199219" fill="#8a95a0"/></g><g id="change1_6"><path d="M 89.082031 83.621094 L 99.851562 93.710938 L 97.074219 94.695312 L 87.671875 85.890625 L 89.082031 83.621094" fill="#8a95a0"/></g><g id="change1_7"><path d="M 91.300781 80.046875 L 104.234375 92.160156 L 101.453125 93.144531 L 89.894531 82.3125 L 91.300781 80.046875" fill="#8a95a0"/></g><g id="change1_8"><path d="M 93.519531 76.46875 L 108.613281 90.605469 L 105.835938 91.59375 L 92.113281 78.738281 L 93.519531 76.46875" fill="#8a95a0"/></g><g id="change1_9"><path d="M 95.824219 72.769531 C 95.886719 72.722656 95.980469 72.726562 96.035156 72.792969 L 109.003906 88.902344 L 94.332031 75.160156 L 95.738281 72.890625 L 95.792969 72.808594 C 95.800781 72.792969 95.8125 72.78125 95.824219 72.769531" fill="#8a95a0"/></g><g id="change2_1"><path d="M 105.226562 69.660156 L 107.355469 69.851562 C 107.355469 69.851562 106.214844 75.167969 102.214844 78.773438 C 102.214844 78.773438 105.4375 73.304688 105.226562 69.660156" fill="#5e5e5e"/></g><g id="change2_2"><path d="M 114.613281 81.316406 L 114.882812 79.199219 C 114.882812 79.199219 109.445312 79.175781 105.066406 82.316406 C 105.066406 82.316406 111.097656 80.335938 114.613281 81.316406" fill="#5e5e5e"/></g><g id="change2_3"><path d="M 110.871094 73.019531 L 112.421875 75.179688 L 103.308594 79.976562 Z M 110.871094 73.019531" fill="#5e5e5e"/></g><g id="change2_4"><path d="M 108.71875 63.8125 L 107.882812 65.089844 C 107.796875 65.226562 107.804688 65.402344 107.90625 65.53125 L 108.859375 66.71875 C 109.089844 67.003906 108.820312 67.414062 108.46875 67.320312 L 106.996094 66.921875 C 106.839844 66.878906 106.671875 66.941406 106.585938 67.078125 L 105.75 68.355469 C 105.550781 68.660156 105.074219 68.53125 105.058594 68.164062 L 104.980469 66.644531 C 104.972656 66.480469 104.859375 66.34375 104.703125 66.300781 L 103.234375 65.898438 C 102.878906 65.804688 102.855469 65.3125 103.195312 65.183594 L 104.621094 64.640625 C 104.773438 64.585938 104.871094 64.433594 104.863281 64.269531 L 104.789062 62.746094 C 104.769531 62.382812 105.230469 62.210938 105.460938 62.492188 L 106.414062 63.679688 C 106.519531 63.808594 106.691406 63.855469 106.84375 63.796875 L 108.269531 63.253906 C 108.609375 63.125 108.917969 63.507812 108.71875 63.8125" fill="#5e5e5e"/></g><g id="change2_5"><path d="M 121.519531 79.714844 L 120.6875 80.988281 C 120.597656 81.125 120.605469 81.304688 120.710938 81.433594 L 121.664062 82.617188 C 121.894531 82.902344 121.625 83.316406 121.273438 83.21875 L 119.800781 82.820312 C 119.644531 82.777344 119.476562 82.84375 119.386719 82.980469 L 118.554688 84.253906 C 118.355469 84.5625 117.878906 84.433594 117.859375 84.066406 L 117.785156 82.546875 C 117.777344 82.382812 117.664062 82.242188 117.507812 82.199219 L 116.035156 81.800781 C 115.683594 81.703125 115.660156 81.214844 116 81.085938 L 117.425781 80.542969 C 117.578125 80.484375 117.675781 80.335938 117.667969 80.171875 L 117.59375 78.648438 C 117.574219 78.285156 118.03125 78.109375 118.261719 78.394531 L 119.21875 79.578125 C 119.320312 79.707031 119.492188 79.753906 119.644531 79.695312 L 121.070312 79.15625 C 121.410156 79.023438 121.722656 79.40625 121.519531 79.714844" fill="#5e5e5e"/></g><g id="change2_6"><path d="M 117.960938 69.484375 L 117.109375 70.785156 C 117.019531 70.921875 117.027344 71.105469 117.132812 71.234375 L 118.109375 72.445312 C 118.34375 72.734375 118.066406 73.15625 117.707031 73.058594 L 116.210938 72.652344 C 116.046875 72.609375 115.878906 72.671875 115.785156 72.8125 L 114.9375 74.113281 C 114.734375 74.425781 114.25 74.292969 114.230469 73.921875 L 114.152344 72.371094 C 114.144531 72.203125 114.03125 72.0625 113.871094 72.019531 L 112.371094 71.609375 C 112.011719 71.515625 111.988281 71.015625 112.335938 70.882812 L 113.785156 70.328125 C 113.941406 70.269531 114.042969 70.117188 114.035156 69.949219 L 113.957031 68.398438 C 113.9375 68.027344 114.40625 67.847656 114.640625 68.140625 L 115.613281 69.347656 C 115.71875 69.476562 115.894531 69.527344 116.050781 69.464844 L 117.503906 68.914062 C 117.851562 68.78125 118.164062 69.171875 117.960938 69.484375" fill="#5e5e5e"/></g></g></svg>