<?xml version="1.0" encoding="UTF-8" standalone="no"?><svg xmlns="http://www.w3.org/2000/svg" xmlns:xlink="http://www.w3.org/1999/xlink" fill="#f8f8f7" height="11.3" preserveAspectRatio="xMidYMid meet" version="1" viewBox="0.0 0.0 162.6 11.3" width="162.6" zoomAndPan="magnify"><g data-name="Layer 2"><g data-name="Layer 1" id="change1_1"><path d="M34.52,10a3.41,3.41,0,0,1-4.79,0,3.31,3.31,0,0,1,0-4.74L34.9,0,35,0h.35a.1.1,0,0,1,.08.05.1.1,0,0,1,0,.09l-3.7,3.75a.25.25,0,0,0-.05.27.26.26,0,0,0,.25.15,3.35,3.35,0,0,1,2.65,1A3.31,3.31,0,0,1,34.52,10Z" fill-rule="evenodd"/><path d="M27.27,10a3.41,3.41,0,0,1-4.79,0,3.31,3.31,0,0,1,0-4.74L27.65,0l.06,0h.35a.1.1,0,0,1,.08.05.1.1,0,0,1,0,.09l-3.7,3.75a.25.25,0,0,0-.05.27.26.26,0,0,0,.25.15,3.35,3.35,0,0,1,2.65,1A3.31,3.31,0,0,1,27.27,10Z" fill-rule="evenodd"/><path d="M0,6.71H16.32V8.44H0Zm41.19,0H162.6V8.44H41.19Z"/></g></g></svg>