<?xml version="1.0" encoding="UTF-8" standalone="no"?><svg xmlns="http://www.w3.org/2000/svg" xmlns:xlink="http://www.w3.org/1999/xlink" fill="#8a95a0" height="16.9" preserveAspectRatio="xMidYMid meet" version="1" viewBox="0.0 -0.0 500.0 16.9" width="500" zoomAndPan="magnify"><g><g><g id="change1_1"><path d="M231.89,9.43l-88.82-.96,88.82-.96,1.37-.47c1.04-.36,2.06-.73,3.05-1.12L0,8.47l236.32,2.56c-.99-.39-2.01-.76-3.05-1.12l-1.37-.47Z"/><path d="M263.68,5.91c.99,.39,2.01,.76,3.05,1.12l1.37,.47,88.82,.96-88.82,.96-1.37,.47c-1.04,.36-2.06,.73-3.05,1.12l236.32-2.56-236.32-2.56Z"/><path d="M259.58,5.82c-.09,.05-.18,.09-.27,.14l-.51,.27c-.34,.18-.67,.36-1,.54-.32,.18-.65,.37-.96,.55l-.47,.28c-.16,.09-.31,.19-.46,.28-.31,.19-.61,.39-.91,.58,.3,.2,.6,.39,.91,.58,.15,.1,.31,.19,.46,.28l.47,.28c.32,.19,.64,.37,.96,.55,.33,.18,.66,.36,1,.54l.51,.27c.09,.05,.18,.09,.27,.14,2.08-.95,4.3-1.84,6.66-2.65-2.36-.81-4.58-1.7-6.66-2.65Z"/><path d="M250,6.45s-.06,.05-.09,.07c-.84,.66-1.71,1.31-2.62,1.95,.91,.64,1.78,1.29,2.62,1.95,.03,.02,.06,.05,.09,.07,.03-.02,.06-.05,.09-.07,.84-.66,1.71-1.31,2.62-1.95-.91-.64-1.78-1.29-2.62-1.95-.03-.02-.06-.05-.09-.07Z"/><path d="M256.62,11.53c-.35-.19-.7-.38-1.04-.57-.34-.19-.68-.38-1.01-.58l-.49-.29c-.16-.1-.33-.2-.48-.3-.09-.05-.17-.11-.26-.16-.27,.2-.54,.41-.8,.61-.26,.2-.51,.41-.76,.61l-.19,.15-.18,.16-.36,.32c-.13,.11-.24,.22-.35,.33l-.34,.33-.34,.33v.04l-.02-.02-.02,.02v-.04l-.34-.33-.34-.33c-.12-.11-.22-.22-.35-.33l-.36-.32-.18-.16-.19-.15c-.25-.21-.49-.41-.76-.61-.26-.21-.53-.41-.8-.61-.09,.05-.17,.11-.26,.16-.16,.1-.32,.2-.48,.3l-.49,.29c-.33,.19-.67,.39-1.01,.58-.35,.19-.69,.38-1.04,.57l-.54,.28c-.16,.08-.32,.17-.48,.25,2.35,1.19,4.48,2.47,6.33,3.82,.49,.36,.93,.71,1.3,1.06,.38-.34,.81-.7,1.3-1.06,1.85-1.36,3.98-2.64,6.33-3.82-.16-.08-.32-.16-.48-.25l-.54-.28Z"/><path d="M243.38,5.41c.35,.19,.7,.38,1.04,.57,.34,.19,.68,.38,1.01,.58l.49,.29c.16,.1,.33,.2,.48,.3,.09,.05,.17,.11,.26,.16,.27-.2,.54-.41,.8-.61,.26-.2,.51-.41,.75-.61l.19-.15,.18-.16,.37-.32c.13-.11,.24-.22,.35-.33l.34-.33,.33-.33v-.04l.02,.02,.02-.02v.04l.33,.33,.34,.33c.11,.11,.22,.22,.35,.33l.37,.32,.18,.16,.19,.15c.25,.21,.49,.41,.75,.61,.26,.21,.53,.41,.8,.61,.09-.05,.17-.11,.26-.16,.16-.1,.32-.2,.48-.3l.49-.29c.33-.19,.67-.39,1.01-.58,.35-.19,.69-.38,1.04-.57l.54-.28c.16-.08,.32-.17,.48-.25-2.35-1.19-4.48-2.47-6.33-3.82-.49-.36-.93-.71-1.3-1.06-.38,.34-.81,.7-1.3,1.06-1.85,1.36-3.98,2.64-6.33,3.82,.16,.08,.32,.16,.48,.25l.54,.28Z"/><path d="M243.63,9.34c.16-.09,.31-.19,.46-.28,.31-.19,.61-.39,.91-.58-.3-.2-.6-.39-.91-.58-.15-.1-.31-.19-.46-.28l-.47-.28c-.32-.19-.64-.37-.96-.55-.33-.18-.66-.36-1-.54l-.51-.27c-.09-.05-.18-.09-.27-.14-2.08,.95-4.3,1.84-6.66,2.65,2.36,.81,4.58,1.7,6.66,2.65,.09-.05,.18-.09,.27-.14l.51-.27c.34-.18,.66-.36,1-.54,.32-.18,.65-.37,.96-.55l.47-.28Z"/></g></g></g></svg>