<svg width="324" height="324" xmlns="http://www.w3.org/2000/svg" xmlns:xlink="http://www.w3.org/1999/xlink" xml:space="preserve" overflow="hidden"><g transform="translate(-136 -198)"><path d="M323.144 328.646C317.069 332.847 311.418 337.628 306.269 342.922 327.127 377.513 315.995 422.462 281.404 443.32 246.814 464.177 201.865 453.045 181.007 418.455 160.149 383.865 171.282 338.916 205.872 318.058 224.722 306.691 247.689 304.419 268.401 311.872 273.402 305.737 279.061 300.169 285.276 295.268 238.327 272.471 181.787 292.051 158.991 339 136.195 385.949 155.775 442.489 202.724 465.285 249.673 488.082 306.213 468.502 329.009 421.553 335.259 408.681 338.504 394.559 338.5 380.25 338.5 339.75 323.144 328.646 323.144 328.646Z" fill="#EC709A"/><path d="M388.652 293.107 372.486 310.556C410.954 321.925 432.922 362.325 421.553 400.793 410.184 439.26 369.784 461.229 331.316 449.86 330.044 449.484 328.781 449.073 327.531 448.628 322.514 454.738 316.856 460.293 310.656 465.199 358.166 486.803 414.193 465.802 435.798 418.293 457.401 370.783 436.401 314.755 388.891 293.151 388.834 293.125 388.777 293.1 388.72 293.074Z" fill="#EC709A"/><path d="M331.514 310.556 315.348 293.107C267.238 313.339 244.638 368.741 264.869 416.851 267.074 422.093 269.747 427.126 272.856 431.888 279.321 428.249 285.045 423.429 289.731 417.679 282.7 406.477 279.077 393.474 279.302 380.25 279.261 347.989 300.542 319.583 331.514 310.556Z" fill="#EC709A"/><path d="M325 245.25 308.125 265.5 352 312.75 395.875 265.5 379 245.25 325 245.25Z" fill="#EC709A"/></g></svg>