<?xml version="1.0" encoding="UTF-8" standalone="no"?><svg xmlns="http://www.w3.org/2000/svg" xmlns:xlink="http://www.w3.org/1999/xlink" fill="#8a95a0" height="807.4" preserveAspectRatio="xMidYMid meet" version="1" viewBox="62.6 96.1 874.5 807.4" width="874.5" zoomAndPan="magnify"><g id="change1_1"><path d="M 255.464844 537.644531 C 253.941406 536.207031 252.191406 534.964844 250.875 533.359375 C 235.882812 515.117188 218.148438 499.597656 201.226562 483.277344 C 199.625 481.734375 197.78125 480.390625 195.894531 479.210938 C 194.492188 478.332031 192.972656 478.761719 191.777344 479.921875 C 190.339844 481.320312 191.125 482.753906 192.003906 483.960938 C 193.234375 485.652344 194.632812 487.230469 196.035156 488.785156 C 210.011719 504.285156 226.054688 517.601562 241.441406 531.609375 C 245.070312 534.914062 249.367188 537.488281 253.382812 540.367188 C 254.375 541.078125 255.496094 541.617188 256.691406 540.808594 C 256.988281 540.605469 257.082031 540.097656 257.339844 539.59375 C 256.683594 538.90625 256.105469 538.242188 255.464844 537.644531 Z M 161.640625 284.898438 C 161.660156 286.265625 161.871094 288.089844 163.386719 288.113281 C 165.320312 288.144531 164.679688 286.144531 164.710938 284.976562 C 164.945312 276.125 165.933594 267.378906 167.675781 258.691406 C 172.195312 236.109375 182.515625 217.453125 203.171875 205.71875 C 205.636719 204.320312 208.257812 203.207031 210.761719 201.878906 C 211.628906 201.414062 212.953125 200.929688 212.519531 199.664062 C 212.089844 198.410156 210.714844 198.875 209.742188 198.941406 C 208.878906 199 207.980469 199.285156 207.1875 199.65625 C 202.730469 201.753906 198.257812 203.820312 193.871094 206.054688 C 183.8125 211.1875 176.355469 218.921875 171.167969 228.925781 C 163.585938 243.546875 161.71875 259.304688 161.625 275.617188 C 161.625 278.605469 161.59375 281.753906 161.640625 284.898438 Z M 536.394531 428.367188 C 542.28125 428.335938 548.171875 426.707031 554.03125 425.640625 C 555.285156 425.414062 557.589844 425.75 557.234375 423.472656 C 556.910156 421.386719 555.035156 421.363281 553.277344 421.667969 C 540.804688 423.820312 528.203125 423.449219 515.625 423.546875 C 498.988281 423.671875 482.351562 424.082031 465.808594 421.625 C 461.753906 421.023438 458.722656 419.777344 457.617188 415.339844 C 457.015625 412.90625 455.765625 410.609375 454.597656 408.359375 C 454.003906 407.214844 453.0625 405.859375 451.4375 406.558594 C 450.011719 407.171875 450.429688 408.578125 450.699219 409.726562 C 451.347656 412.496094 451.9375 415.289062 452.792969 417.996094 C 455.625 426.988281 461.015625 430.949219 470.371094 431 C 476.960938 431.039062 483.546875 431.007812 490.136719 431.007812 C 505.609375 431.082031 520.945312 428.445312 536.394531 428.367188 Z M 159.054688 464.828125 C 157.191406 466.046875 155.425781 467.519531 154.269531 469.503906 C 147.332031 481.40625 143.664062 494.097656 145.027344 508 C 145.167969 509.433594 145.53125 511.074219 147.058594 511.027344 C 149.035156 510.972656 148.269531 509.023438 148.3125 507.859375 C 148.503906 502.632812 147.367188 497.003906 148.925781 492.242188 C 153.726562 477.554688 163.296875 466.980469 178.523438 462.210938 C 182.167969 461.066406 186.125 460.796875 189.296875 457.988281 C 178.765625 458.226562 168.28125 458.800781 159.054688 464.828125 Z M 275.832031 139.621094 C 275.953125 142.234375 279.238281 140.667969 281.09375 140.828125 C 282.566406 140.957031 285.027344 141.195312 284.792969 138.929688 C 284.617188 137.222656 282.351562 137.910156 280.71875 137.808594 C 279.199219 138.597656 275.703125 136.835938 275.832031 139.621094 Z M 198.445312 153.085938 C 215.738281 150.472656 232.976562 147.433594 250.148438 144.109375 C 254.28125 143.3125 258.453125 143.199219 262.527344 142.3125 C 263.605469 142.074219 265.183594 141.671875 264.90625 140.152344 C 264.648438 138.757812 263.179688 139.332031 262.234375 139.382812 C 255.820312 139.734375 249.433594 140.664062 243.105469 141.550781 C 231.730469 143.140625 220.363281 144.832031 208.949219 145.992188 C 194.492188 147.460938 179.957031 148.105469 165.492188 149.503906 C 155.964844 150.429688 146.503906 152.023438 137.023438 153.402344 C 135.472656 153.628906 133.511719 153.761719 133.644531 156.15625 C 133.765625 158.261719 135.171875 159.476562 137.023438 159.863281 C 139.050781 160.289062 141.171875 160.277344 143.304688 160.460938 C 161.683594 158.027344 180.109375 155.859375 198.445312 153.085938 Z M 530.839844 243.753906 C 524.300781 238.796875 517.171875 234.601562 510.1875 230.261719 C 508.578125 229.261719 506.101562 226.621094 504.824219 228.667969 C 503.347656 231.027344 506.839844 232.097656 508.515625 233.191406 C 517.621094 239.140625 526.097656 245.683594 531.511719 255.429688 C 534.058594 260.007812 536.769531 264.496094 539.203125 269.132812 C 546.546875 283.136719 551.566406 297.609375 548.246094 313.828125 C 547.652344 316.734375 546.269531 319.515625 546.546875 322.589844 C 546.640625 323.65625 545.566406 325.214844 547.332031 325.617188 C 549.050781 326.007812 549.605469 324.574219 549.914062 323.1875 C 552.117188 313.425781 555.152344 303.785156 554.507812 294.753906 C 554.953125 273.015625 547.253906 256.199219 530.839844 243.753906 Z M 474.3125 689.351562 C 475.605469 689.140625 477.300781 688.730469 477 686.972656 C 476.671875 685.082031 474.878906 685.507812 473.6875 685.871094 C 469.203125 687.242188 464.515625 687.222656 459.957031 688.054688 C 450.578125 689.765625 441.808594 688.308594 433.832031 682.875 C 432.492188 681.960938 430.929688 680.609375 429.65625 682.730469 C 428.648438 684.410156 429.621094 685.8125 431.054688 686.960938 C 436.347656 691.191406 441.984375 694.394531 448.019531 693.371094 C 457.765625 693.558594 465.921875 690.710938 474.3125 689.351562 Z M 83.636719 595.148438 C 84.398438 605.164062 84.222656 615.210938 84.597656 625.234375 C 84.9375 634.390625 86.003906 643.460938 91.792969 651.195312 C 98.605469 660.292969 107.289062 667.390625 116.15625 674.304688 C 116.507812 674.578125 116.910156 674.800781 117.320312 674.980469 C 118.46875 675.488281 119.703125 675.796875 120.597656 674.652344 C 121.714844 673.230469 120.359375 672.53125 119.507812 671.765625 C 117.722656 670.164062 115.859375 668.652344 114.125 667.003906 C 104.777344 658.117188 96.496094 648.578125 94.730469 635.074219 C 93.917969 628.859375 92.90625 622.671875 92.214844 616.449219 C 91.324219 608.398438 88.902344 600.695312 87.226562 592.824219 C 86.992188 591.707031 86.382812 590.910156 84.765625 590.957031 C 83.109375 591.828125 83.519531 593.617188 83.636719 595.148438 Z M 260.25 304.269531 C 256.808594 289.554688 243.964844 284.015625 232.839844 276.859375 C 232.191406 276.441406 231.371094 276.199219 230.949219 277.101562 C 230.566406 277.917969 231.214844 278.539062 231.78125 279.007812 C 234.328125 281.097656 236.863281 283.210938 239.484375 285.203125 C 244.203125 288.789062 247.050781 293.277344 248.339844 299.246094 C 249.359375 303.953125 249.773438 308.714844 250.503906 313.421875 C 252.421875 325.824219 256.0625 338 255.738281 350.730469 C 255.664062 353.5625 256.007812 356.421875 256.355469 359.242188 C 256.535156 360.703125 257 362.488281 258.933594 362.347656 C 261.152344 362.183594 260.625 360.226562 260.566406 358.828125 C 260.40625 355.242188 259.871094 351.65625 259.945312 348.078125 C 260.148438 338.199219 260.84375 328.339844 262.09375 317.910156 C 261.550781 313.738281 261.335938 308.902344 260.25 304.269531 Z M 498.984375 881.390625 C 493.402344 881.574219 487.996094 880.171875 482.492188 879.71875 C 470.429688 878.730469 464.042969 872.808594 463.355469 860.8125 C 462.613281 847.851562 462.003906 834.894531 459.917969 822.054688 C 459.652344 820.414062 459.777344 818.226562 457.828125 818.070312 C 455.65625 817.894531 456.136719 820.382812 455.539062 821.742188 C 455.371094 822.132812 455.433594 822.628906 455.425781 823.078125 C 455.199219 834.601562 455.007812 846.128906 454.742188 857.65625 C 454.386719 873.019531 464.691406 882.71875 479.910156 883.046875 C 483.203125 883.117188 486.441406 883.535156 489.707031 884.03125 C 494.027344 884.683594 498.476562 885.117188 503.351562 884.195312 C 502.089844 882.105469 500.675781 881.335938 498.984375 881.390625 Z M 327.503906 510.304688 C 328.515625 510.289062 329.882812 510.300781 329.878906 508.894531 C 329.878906 507.566406 328.585938 507.40625 327.535156 507.382812 C 323.648438 507.285156 319.761719 507.308594 315.875 507.183594 C 307.691406 506.914062 303.378906 503.648438 300.574219 495.847656 C 297.882812 488.363281 296.703125 480.503906 294.667969 472.855469 C 294.101562 470.726562 293.8125 467.542969 291.269531 467.890625 C 288.519531 468.265625 289.988281 471.320312 290.078125 473.210938 C 290.429688 480.664062 290.980469 488.105469 291.328125 495.554688 C 291.617188 501.679688 294.488281 505.953125 299.996094 508.59375 C 305.367188 511.164062 311.09375 510.484375 316.742188 510.324219 C 320.332031 510.324219 323.917969 510.355469 327.503906 510.304688 Z M 257.601562 645.089844 C 257.8125 646.894531 258.738281 648.449219 260.753906 648.109375 C 262.726562 647.773438 262.335938 645.851562 262.335938 644.40625 C 262.339844 643.367188 262.179688 642.316406 261.996094 641.285156 C 259.285156 625.898438 258.019531 610.53125 260.714844 594.929688 C 262.882812 582.363281 267.613281 572.355469 281.273438 569.136719 C 286.929688 567.804688 292.550781 566.300781 298.183594 564.867188 C 299.71875 564.480469 301.964844 564.558594 301.6875 562.308594 C 301.4375 560.300781 299.328125 560.363281 297.6875 560.261719 C 296.941406 560.214844 296.179688 560.1875 295.441406 560.292969 C 286.550781 561.574219 277.605469 562.738281 269.015625 565.425781 C 258.246094 568.800781 253.527344 575.152344 252.84375 586.574219 C 252.617188 590.304688 252.808594 594.0625 252.808594 597.804688 C 252.542969 613.746094 255.742188 629.347656 257.601562 645.089844 Z M 422.234375 181.03125 C 420.558594 180.730469 420.070312 179.679688 420.40625 178.074219 C 420.800781 176.175781 420.921875 174.195312 421.527344 172.367188 C 422.4375 169.617188 420.324219 165.292969 425.550781 164.683594 C 433.1875 163.789062 435.871094 164.964844 438.21875 170.558594 C 438.507812 171.25 438.8125 171.933594 439.128906 172.613281 C 442.277344 179.40625 440.164062 182.554688 431.355469 182.621094 C 429 182.210938 425.617188 181.636719 422.234375 181.03125 Z M 717.5 671.140625 C 715.609375 674.234375 712.339844 673.148438 709.746094 672.1875 C 707.246094 671.261719 707.816406 668.988281 708.28125 666.792969 C 710.152344 657.960938 710.78125 648.992188 710.535156 639.988281 C 710.425781 635.96875 712.136719 634.628906 715.945312 634.949219 C 722.773438 635.523438 726.40625 639.96875 726.476562 648.058594 C 726.351562 656.855469 721.863281 664.011719 717.5 671.140625 Z M 512.570312 133.164062 C 516.738281 130.777344 521.09375 128.886719 525.558594 127.191406 C 526.859375 126.699219 528.226562 126.210938 529.355469 127.238281 C 530.488281 128.273438 530.152344 129.734375 529.746094 131.035156 C 524.28125 148.566406 515.304688 157.398438 497.566406 160.496094 C 488.292969 162.113281 479.222656 161.964844 469.960938 159.589844 C 485.632812 152.992188 498.09375 141.453125 512.570312 133.164062 Z M 504.296875 134.253906 C 493.292969 140.898438 483.277344 149.117188 471.246094 154.125 C 461.527344 158.171875 451.226562 160 441.207031 162.890625 C 439.097656 163.5 438.605469 162.238281 439.339844 160.742188 C 440.25 158.886719 441.484375 157.128906 442.863281 155.574219 C 454.203125 142.785156 468.503906 135.210938 485.128906 131.757812 C 495.609375 129.582031 505.921875 126.445312 516.925781 126.703125 C 512.714844 129.21875 508.492188 131.71875 504.296875 134.253906 Z M 331.285156 135.535156 C 328.257812 137.277344 326.335938 137.199219 323.9375 134.644531 C 321.703125 132.261719 318.914062 130.402344 316.378906 128.296875 C 315.6875 127.722656 314.839844 127.054688 315.152344 126.097656 C 315.46875 125.125 316.558594 125.132812 317.453125 125.058594 C 333.71875 123.746094 349.980469 122.4375 366.242188 121.121094 C 367.699219 121.003906 368.886719 121.539062 369.847656 122.589844 C 375.492188 128.742188 382.957031 131.824219 390.441406 134.921875 C 403.46875 140.3125 416.488281 145.753906 426.070312 156.769531 C 426.890625 157.714844 428.679688 158.347656 427.925781 159.9375 C 427.339844 161.171875 425.734375 160.441406 424.625 160.738281 C 419.355469 162.152344 415.863281 160.355469 412.210938 156.117188 C 406.082031 149.003906 397.226562 145.949219 388.40625 143.351562 C 379.730469 140.796875 371.710938 136.859375 363.894531 132.382812 C 359.890625 130.089844 355.777344 127.757812 353.265625 128.039062 C 343.523438 128.554688 337.347656 132.046875 331.285156 135.535156 Z M 367.632812 198.304688 C 366.457031 198.832031 365.011719 198.890625 363.683594 198.925781 C 352.894531 199.207031 342.105469 199.265625 331.484375 197.007812 C 327.171875 196.09375 323.011719 194.578125 321.8125 189.554688 C 319.703125 180.714844 322.726562 176.875 331.824219 176.40625 C 342.578125 175.851562 352.96875 178.519531 363.472656 179.988281 C 373.183594 181.347656 382.847656 181.75 392.59375 181.179688 C 393.746094 181.113281 394.945312 180.855469 396.890625 182.152344 C 386.480469 187.398438 377.617188 193.84375 367.632812 198.304688 Z M 429.191406 842.929688 C 425.699219 830.191406 425.539062 817.15625 425.542969 804.121094 C 425.550781 770.242188 427.226562 736.378906 426.328125 702.492188 C 426.242188 699.324219 427.363281 699.042969 430.070312 699.9375 C 434.0625 701.253906 435.820312 703.242188 435.804688 707.925781 C 435.699219 739.261719 435.492188 770.609375 436.3125 801.925781 C 436.863281 822.871094 437.429688 843.875 440.007812 864.730469 C 440.296875 867.078125 440.253906 869.464844 440.363281 871.832031 C 439.972656 871.898438 439.582031 871.96875 439.191406 872.035156 C 435.308594 862.53125 431.910156 852.863281 429.191406 842.929688 Z M 578.070312 191.734375 C 567.222656 192.992188 556.378906 194.351562 545.503906 195.308594 C 535.195312 196.214844 525.585938 192.84375 516.398438 188.855469 C 506.210938 184.429688 495.585938 182.207031 484.71875 181.542969 C 472.746094 180.808594 460.863281 179.445312 448.960938 178.1875 C 446.445312 177.921875 441.902344 172.203125 442.238281 169.722656 C 442.5 167.796875 444.171875 167.359375 445.589844 167.335938 C 459.925781 167.089844 474.242188 164.976562 488.605469 167.59375 C 513.484375 172.121094 537.5625 179.832031 562.121094 185.625 C 568.898438 187.222656 575.871094 188.019531 582.78125 190.007812 C 581.351562 191.558594 579.628906 191.554688 578.070312 191.734375 Z M 511.992188 162.265625 C 527.710938 161.804688 543.351562 160.273438 558.96875 158.617188 C 578.558594 156.539062 598.105469 154.078125 617.65625 151.644531 C 620.972656 151.230469 623.761719 151.648438 626.53125 153.621094 C 630.914062 156.746094 635.542969 159.523438 640 162.546875 C 641.128906 163.308594 643.3125 163.5625 642.753906 165.523438 C 642.316406 167.03125 640.460938 166.625 639.199219 166.753906 C 626.855469 168.019531 614.457031 168.855469 602.171875 170.535156 C 588.246094 172.433594 573.914062 171.800781 560.367188 175.015625 C 547.726562 178.015625 536.859375 173.84375 525.402344 171.105469 C 519.460938 169.683594 513.570312 168.019531 507.644531 166.519531 C 505.800781 166.054688 503.957031 165.664062 501.898438 164.316406 C 505.585938 163.074219 508.710938 162.359375 511.992188 162.265625 Z M 120.316406 384.5625 C 135.828125 397.769531 150.882812 411.484375 165.769531 425.382812 C 169.378906 428.753906 173.023438 432.089844 176.640625 435.453125 C 178.695312 437.363281 178.148438 438.496094 175.535156 438.886719 C 173.609375 439.171875 171.640625 439.703125 169.742188 439.539062 C 161.429688 438.820312 154.152344 441.78125 147.179688 445.710938 C 144.6875 447.113281 143.019531 446.910156 140.859375 444.972656 C 126.386719 431.996094 111.828125 419.109375 97.207031 406.304688 C 91.804688 401.574219 86.183594 397.089844 80.585938 392.589844 C 78.613281 391.003906 78.238281 389.660156 80.960938 388.949219 C 92.230469 386.003906 103.59375 383.503906 114.671875 382.347656 C 117.402344 381.914062 118.816406 383.285156 120.316406 384.5625 Z M 315.25 171.835938 C 320.53125 154.875 330.972656 142.898438 348.320312 137.445312 C 353.1875 135.917969 357.828125 135.851562 362.214844 138.378906 C 373.207031 144.703125 385.046875 148.828125 397.167969 152.265625 C 405.148438 154.53125 410.941406 159.992188 416.316406 165.816406 C 417.953125 167.589844 417.5 170.796875 414.613281 171.59375 C 401.074219 175.335938 387.578125 179.558594 373.183594 177.460938 C 360.902344 175.667969 348.59375 174.085938 336.320312 172.257812 C 331.546875 171.542969 327.023438 172.59375 322.640625 173.988281 C 318.773438 175.21875 317.75 178.910156 317.097656 182.546875 C 316.890625 183.6875 317.503906 184.949219 316.292969 186.359375 C 313.015625 181.425781 313.761719 176.617188 315.25 171.835938 Z M 393.609375 211.871094 C 382.960938 234.949219 362.148438 244.464844 340.652344 253.320312 C 335.136719 255.59375 329.425781 257.390625 323.785156 259.359375 C 321.941406 260.003906 319.539062 260.464844 320.75 257.335938 C 323.203125 250.988281 322.035156 244.257812 323.386719 237.824219 C 324.34375 233.289062 325.25 228.742188 326.210938 224.207031 C 327.417969 218.488281 331.214844 215.246094 336.519531 213.40625 C 342.59375 211.300781 348.671875 209.199219 354.210938 205.839844 C 356.203125 204.628906 358.371094 204.289062 360.683594 204.382812 C 367.53125 204.65625 373.558594 202.355469 379.21875 198.628906 C 387.59375 193.109375 396.171875 187.902344 405.132812 183.367188 C 406.539062 182.652344 407.882812 181.566406 410.757812 181.835938 C 404.777344 192.1875 398.335938 201.632812 393.609375 211.871094 Z M 437.660156 418.476562 C 440.683594 425.960938 443.285156 433.628906 447.179688 440.742188 C 447.929688 442.105469 448.164062 443.5 448.046875 445.054688 C 446.320312 467.898438 445.601562 490.777344 444.976562 513.683594 C 444.277344 539.257812 442.257812 564.789062 440.824219 590.34375 C 440.183594 601.855469 439.550781 613.363281 438.964844 624.878906 C 438.734375 629.464844 437.964844 630.117188 433.519531 629.109375 C 426.304688 627.46875 426.136719 627.183594 426.320312 619.839844 C 427.699219 565.039062 430.515625 510.285156 431.171875 455.460938 C 431.332031 441.96875 432.808594 428.386719 434.882812 414.617188 C 436.960938 415.546875 437.117188 417.125 437.660156 418.476562 Z M 216.402344 473.9375 C 236.085938 493.480469 256.707031 512.015625 277.808594 530.019531 C 279.363281 531.347656 280.898438 531.597656 282.746094 531.492188 C 298.003906 530.632812 313.179688 529.070312 328.308594 526.890625 C 341.476562 524.992188 354.695312 523.433594 367.882812 521.660156 C 384.359375 519.453125 400.828125 517.195312 417.296875 514.914062 C 419.28125 514.636719 421.476562 513.1875 422.25 516.546875 C 423.167969 520.53125 421.839844 524.183594 419.0625 524.695312 C 409.816406 526.398438 400.554688 528.023438 391.296875 529.679688 C 378.324219 532.003906 365.378906 534.484375 352.375 536.613281 C 336.136719 539.273438 319.863281 541.753906 303.574219 544.097656 C 289.039062 546.191406 274.445312 547.863281 259.921875 549.992188 C 255.34375 550.660156 252.070312 549.621094 248.765625 546.21875 C 226.011719 522.746094 201.921875 500.664062 177.671875 478.757812 C 175.28125 476.601562 174.964844 475.117188 178.25 474.171875 C 186.421875 471.824219 194.519531 469.058594 203.117188 468.746094 C 208.410156 468.3125 212.570312 470.132812 216.402344 473.9375 Z M 681.238281 638.378906 C 685.046875 640.949219 689.378906 642.746094 693.480469 644.875 C 694.253906 645.277344 695.351562 645.472656 695.277344 646.574219 C 695.203125 647.667969 694.132812 647.894531 693.273438 648.046875 C 689.566406 648.703125 686.035156 649.894531 682.53125 651.242188 C 680.757812 651.925781 679.089844 651.246094 677.335938 650.628906 C 660.765625 644.796875 646.15625 635.5 631.898438 625.480469 C 623.445312 619.542969 614.75 613.941406 606.113281 608.261719 C 598.476562 603.238281 598.105469 601.683594 604.644531 595.191406 C 614.316406 585.589844 624.277344 576.273438 634.101562 566.820312 C 636.585938 564.429688 638.980469 561.945312 641.476562 559.566406 C 645.398438 555.828125 647.910156 555.738281 651.964844 559.417969 C 658.578125 565.421875 663.09375 573.097656 668.28125 580.234375 C 678.949219 594.90625 687.710938 610.785156 697.539062 625.988281 C 699.398438 628.871094 701.714844 631.460938 703.828125 634.175781 C 704.195312 634.648438 704.6875 635.039062 704.996094 635.542969 C 706.722656 638.363281 706.535156 641.683594 705.074219 644.078125 C 703.90625 645.992188 701.257812 643.886719 699.453125 643.265625 C 695.511719 641.902344 691.710938 640.121094 687.890625 638.425781 C 682.253906 635.921875 676.738281 633.234375 674.03125 626.964844 C 673.710938 632.570312 677.367188 635.761719 681.238281 638.378906 Z M 745.839844 656.597656 C 742.171875 656.574219 738.859375 655.113281 735.398438 654.320312 C 732.820312 653.730469 731.878906 651.835938 731.34375 648.84375 C 730.246094 642.707031 732.023438 639.140625 737.410156 635.945312 C 748.027344 629.648438 754.558594 618.960938 763.121094 610.429688 C 773.152344 600.445312 783.777344 591.273438 797.574219 586.75 C 798.847656 586.332031 800.203125 586.148438 801.453125 585.675781 C 804.101562 584.675781 805.320312 585.761719 805.886719 588.308594 C 809.21875 603.355469 816.554688 616.828125 822.757812 630.738281 C 824.644531 634.964844 827.085938 638.941406 829.21875 643.058594 C 832.230469 648.863281 831.722656 652.105469 826.066406 655.574219 C 817.605469 660.765625 808.355469 664.242188 798.527344 665.980469 C 784.316406 668.496094 770.023438 669.355469 755.644531 667.644531 C 747.425781 666.667969 739.695312 663.847656 731.910156 661.257812 C 729.78125 660.546875 729.890625 659.125 730.617188 657.304688 C 731.417969 655.296875 732.382812 655.71875 734.011719 656.320312 C 742.003906 659.265625 750.167969 660.511719 758.644531 658.429688 C 760.839844 657.890625 762.796875 657.164062 764.367188 655.082031 C 758.269531 657.097656 752.046875 656.632812 745.839844 656.597656 Z M 532.910156 138.699219 C 534.40625 134.597656 534.425781 130.34375 533.574219 126.300781 C 532.699219 122.144531 529.296875 120.359375 525.0625 120.519531 C 513.496094 120.953125 502.132812 122.847656 490.917969 125.628906 C 482.53125 127.707031 474.027344 129.433594 466.058594 132.929688 C 455.179688 137.703125 445.859375 144.5625 438.382812 153.828125 C 436.847656 155.730469 435.386719 157.621094 433.066406 155.054688 C 420.996094 141.695312 404.277344 136.683594 388.445312 130.066406 C 384.296875 128.332031 380.257812 126.402344 376.789062 123.476562 C 376.035156 122.839844 374.8125 122.109375 375.5 120.964844 C 375.828125 120.417969 377.058594 120.242188 377.898438 120.199219 C 384.324219 119.882812 390.6875 118.941406 397.140625 118.738281 C 413.144531 118.238281 429.175781 117.589844 445.113281 116.359375 C 463.390625 114.949219 481.71875 113.816406 499.929688 110.992188 C 514.992188 108.660156 530.253906 107.203125 545.121094 103.9375 C 552.6875 102.277344 557.742188 104.851562 563.1875 108.753906 C 578.042969 119.394531 592.964844 129.945312 607.839844 140.5625 C 609.136719 141.488281 611.53125 142.300781 611.167969 143.789062 C 610.667969 145.839844 607.980469 145.648438 606.195312 145.890625 C 593.597656 147.609375 580.96875 149.132812 568.359375 150.769531 C 552.839844 152.785156 537.324219 154.851562 520.511719 157.0625 C 525.761719 150.671875 530.457031 145.425781 532.910156 138.699219 Z M 801.003906 671.511719 C 810.59375 670.0625 819.464844 666.695312 828.25 662.894531 C 830.464844 661.9375 832.484375 660.652344 834.277344 659.023438 C 838.492188 655.195312 839.464844 651.789062 837.101562 646.574219 C 834.820312 641.539062 831.992188 636.753906 829.523438 631.800781 C 827.4375 627.613281 827.6875 627.175781 832.199219 627.296875 C 849.742188 627.761719 867.246094 626.675781 884.699219 625.304688 C 897.769531 624.277344 911.011719 624.027344 923.71875 620.113281 C 927.207031 619.039062 926.949219 621.320312 926.988281 623.519531 C 927.28125 638.820312 925.949219 654.074219 925.742188 669.359375 C 925.691406 673.105469 925.226562 676.878906 925.535156 680.589844 C 925.886719 684.859375 923.964844 685.992188 920.140625 686.152344 C 909.484375 686.609375 898.855469 685.59375 888.21875 685.679688 C 871.125 685.816406 854.03125 685.132812 837.058594 683.578125 C 821.03125 682.113281 804.925781 680.28125 789.382812 675.554688 C 788.679688 675.34375 787.882812 675.253906 787.332031 673.511719 C 791.882812 672.320312 796.527344 672.1875 801.003906 671.511719 Z M 159.242188 245.703125 C 167.664062 215.378906 191.964844 194.574219 223.511719 191.042969 C 237.632812 189.464844 251.800781 188.082031 265.816406 185.824219 C 278.355469 183.804688 291.082031 182.9375 303.449219 179.875 C 306.785156 179.046875 308.714844 179.789062 309.761719 183.394531 C 310.757812 186.828125 312.667969 189.984375 314.925781 192.800781 C 316.882812 195.238281 315.769531 195.519531 313.375 195.851562 C 305.9375 196.882812 298.472656 197.222656 290.980469 197.476562 C 279.601562 197.867188 268.148438 197.78125 256.867188 199.113281 C 224.769531 202.894531 200.992188 217.824219 190.011719 249.925781 C 180.59375 277.464844 176.449219 305.714844 176.972656 334.695312 C 177.195312 346.96875 177.035156 359.300781 179.027344 371.46875 C 181.199219 384.761719 183.625 398.015625 186.011719 411.273438 C 187.097656 417.3125 188.597656 423.28125 188.699219 429.460938 C 188.714844 430.328125 189.09375 431.367188 188.0625 431.855469 C 187.078125 432.328125 186.386719 431.519531 185.742188 430.929688 C 178.453125 424.25 171.164062 417.566406 163.898438 410.859375 C 161.984375 409.09375 161.699219 406.652344 161.507812 404.257812 C 159.535156 379.476562 155.425781 354.921875 153.996094 330.078125 C 153.464844 320.789062 153.441406 311.503906 153.121094 303.414062 C 152.691406 283.117188 154.089844 264.253906 159.242188 245.703125 Z M 469.316406 435.226562 C 450.730469 435.523438 455.488281 437.902344 448.601562 421.152344 C 446.15625 415.214844 444.054688 409.132812 441.660156 403.171875 C 440.613281 400.566406 441.335938 399.742188 444.058594 399.582031 C 481.59375 397.375 519.101562 394.734375 556.65625 392.875 C 580.605469 391.6875 604.546875 390.535156 628.511719 389.824219 C 632.453125 389.707031 634.476562 390.714844 635.6875 394.621094 C 638.910156 405.039062 642.628906 415.300781 645.960938 425.683594 C 647.796875 431.402344 647.351562 431.871094 641.453125 431.875 C 618.371094 431.890625 595.289062 431.882812 572.210938 431.882812 C 537.878906 432.042969 503.628906 434.671875 469.316406 435.226562 Z M 164.910156 730.636719 C 162.539062 728.132812 160.535156 725.125 157.777344 723.175781 C 149.179688 717.09375 146.929688 708.390625 146.816406 698.671875 C 146.644531 683.65625 143.949219 668.890625 142.515625 654.003906 C 140.632812 634.480469 137.769531 615.0625 136.59375 595.460938 C 135.0625 569.910156 132.417969 544.429688 132.082031 518.8125 C 131.960938 509.523438 131.515625 500.15625 132.429688 490.945312 C 133.8125 477.023438 136.050781 462.882812 148.234375 453.648438 C 157.847656 446.363281 168.84375 442.128906 181.308594 443.273438 C 183.574219 443.480469 185.757812 443.839844 187.484375 445.570312 C 192.773438 450.882812 198.105469 456.148438 203.398438 461.457031 C 204.101562 462.160156 205.238281 462.859375 204.578125 464.070312 C 204.074219 465.003906 202.984375 464.644531 202.121094 464.582031 C 191.351562 463.800781 181.488281 467.503906 171.617188 470.917969 C 161.511719 474.414062 158.152344 483.058594 156.234375 492.476562 C 153.121094 507.75 153.671875 523.1875 154.488281 538.625 C 155.367188 555.226562 157.589844 571.699219 159.96875 588.117188 C 163.613281 613.261719 166.027344 638.554688 169.480469 663.71875 C 171.734375 680.15625 173.335938 696.691406 175.929688 713.074219 C 177.449219 722.679688 178.308594 732.367188 180.085938 741.929688 C 180.300781 743.085938 180.640625 744.28125 179.664062 746.164062 C 174.554688 740.785156 169.722656 735.71875 164.910156 730.636719 Z M 881.046875 380.253906 C 883.460938 380.242188 885.371094 380.898438 886.941406 382.816406 C 895.304688 393.023438 904.167969 402.785156 913.226562 412.378906 C 914.027344 413.222656 915.441406 414.117188 914.957031 415.300781 C 914.378906 416.714844 912.636719 416.347656 911.324219 416.433594 C 890.558594 417.855469 869.992188 421.109375 849.296875 423.164062 C 839.632812 424.125 829.925781 424.925781 820.199219 425.507812 C 791.921875 427.207031 763.617188 427.988281 735.3125 428.933594 C 731.679688 429.058594 729.632812 428.632812 728.988281 424.324219 C 727.011719 411.15625 722.40625 398.882812 714.964844 387.761719 C 713.769531 385.976562 713.972656 385.152344 716.21875 384.894531 C 719.34375 384.535156 722.453125 383.601562 725.5625 383.640625 C 738.328125 383.789062 750.992188 382.09375 763.730469 381.835938 C 788.753906 381.328125 813.734375 379.511719 838.773438 380.277344 C 852.863281 380.277344 866.953125 380.308594 881.046875 380.253906 Z M 722.5625 874.765625 C 722.613281 877.746094 721.390625 879.113281 718.402344 879.367188 C 698.867188 881.023438 679.34375 882.820312 659.804688 884.433594 C 654.394531 884.882812 654.496094 884.617188 656.246094 879.449219 C 662.003906 862.441406 666.445312 845.058594 670.113281 827.5 C 674.789062 805.121094 677.96875 782.488281 680.726562 759.800781 C 682.351562 746.429688 684.015625 733.0625 685.679688 719.699219 C 685.863281 718.21875 686.074219 716.765625 686.976562 715.453125 C 693.996094 705.226562 699.714844 694.105469 708.117188 684.835938 C 709.066406 683.789062 709.664062 681.742188 711.417969 682.339844 C 712.875 682.839844 712.992188 684.75 713.351562 686.195312 C 717.101562 701.207031 718.582031 716.484375 718.941406 731.921875 C 719.546875 758.128906 720.199219 784.332031 721.054688 810.527344 C 721.550781 825.796875 722.671875 841.042969 722.527344 859.191406 C 722.527344 862.476562 722.453125 868.621094 722.5625 874.765625 Z M 112.105469 160.148438 C 124.753906 172.722656 137.351562 185.34375 150.046875 197.867188 C 154.527344 202.285156 159.183594 206.527344 163.878906 210.714844 C 166.027344 212.628906 166.542969 214.285156 164.753906 216.832031 C 154.679688 231.1875 150.453125 247.515625 148.234375 264.683594 C 145.058594 289.21875 146.382812 313.671875 148.066406 338.199219 C 149.421875 357.9375 151.894531 377.539062 154.042969 397.183594 C 154.160156 398.277344 154.882812 399.703125 153.363281 400.347656 C 152.246094 400.820312 151.382812 399.875 150.617188 399.199219 C 141.984375 391.546875 133.289062 383.964844 124.058594 377.03125 C 122.15625 375.605469 121.875 373.585938 121.398438 371.546875 C 113.449219 337.351562 112.808594 302.394531 110.859375 267.605469 C 109.191406 237.832031 108.28125 208.015625 107.148438 178.214844 C 106.925781 172.382812 107.183594 166.527344 107.300781 160.683594 C 107.324219 159.445312 107.207031 157.933594 109.105469 157.421875 C 110.128906 158.347656 111.15625 159.207031 112.105469 160.148438 Z M 854.433594 776.429688 C 852.417969 784.683594 852.570312 793.054688 852.902344 801.4375 C 853.089844 806.113281 852.871094 806.367188 848.648438 804.550781 C 827.113281 795.300781 806.902344 783.75 788.40625 769.3125 C 768.625 753.871094 750.730469 736.503906 735.871094 716.21875 C 728.078125 705.574219 721.699219 694.105469 717.761719 681.386719 C 717.058594 679.105469 717.144531 677.960938 719.46875 676.820312 C 723.226562 674.976562 724.433594 670.945312 726.242188 667.5625 C 727.554688 665.105469 728.652344 664.511719 731.449219 665.730469 C 740.464844 669.660156 749.722656 672.9375 758.648438 677.199219 C 778.835938 686.84375 796.339844 700.320312 813.855469 713.859375 C 828.113281 724.882812 841.222656 737.089844 852.324219 751.347656 C 855.773438 755.78125 857.691406 759.726562 857.652344 761.839844 C 856.558594 766.828125 855.597656 771.65625 854.433594 776.429688 Z M 119.753906 149.773438 C 137.472656 149.058594 154.796875 145.355469 172.304688 143.050781 C 190.410156 140.671875 208.546875 138.53125 226.660156 136.214844 C 246.558594 133.667969 266.433594 130.933594 286.347656 128.515625 C 291.535156 127.886719 296.792969 127.871094 301.957031 126.78125 C 306.007812 125.925781 309.492188 126.933594 312.429688 130.238281 C 315.003906 133.136719 318.078125 135.59375 320.976562 138.195312 C 322.757812 139.796875 322.851562 141.285156 321.335938 143.21875 C 314.648438 151.734375 310.472656 161.460938 308.011719 171.933594 C 307.511719 174.054688 306.457031 174.722656 304.378906 175.070312 C 291.355469 177.242188 278.1875 178.164062 265.105469 179.792969 C 249.945312 181.675781 234.742188 183.144531 219.566406 184.816406 C 204.21875 186.507812 189.777344 191.675781 178.039062 202.335938 C 174.347656 205.6875 171.820312 205.269531 168.382812 202.035156 C 152.882812 187.453125 137.195312 173.070312 121.570312 158.617188 C 119.070312 156.304688 116.566406 153.996094 114.011719 151.636719 C 115.839844 149.855469 117.910156 149.847656 119.753906 149.773438 Z M 581.023438 783.304688 C 576.8125 783.472656 572.679688 784.054688 568.515625 784.5 C 567.253906 784.636719 565.582031 785.199219 564.785156 783.839844 C 563.914062 782.351562 565.519531 781.40625 566.300781 780.425781 C 575.441406 768.929688 584.128906 757.101562 592.15625 744.808594 C 599.519531 733.527344 606.824219 722.207031 615.082031 711.554688 C 634.972656 685.894531 659.035156 665.527344 689.640625 653.6875 C 693.355469 652.25 697.339844 651.261719 701.464844 651.246094 C 703.476562 651.238281 704.722656 651.664062 704.394531 653.980469 C 704.035156 656.496094 703.933594 659.078125 703.277344 661.515625 C 701.867188 666.753906 701.261719 671.53125 706.945312 674.855469 C 709.53125 676.363281 707.574219 677.976562 706.425781 679.1875 C 694.195312 692.125 684.988281 707.285156 675.558594 722.1875 C 665.644531 737.847656 656.867188 754.226562 647.558594 770.269531 C 646.359375 772.339844 644.898438 774.25 643.652344 776.289062 C 640.164062 781.992188 635.394531 784.855469 628.484375 783.46875 C 612.707031 780.242188 596.871094 782.664062 581.023438 783.304688 Z M 558.074219 359.457031 C 557.089844 366.417969 556.613281 373.453125 556.097656 380.472656 C 555.867188 383.609375 554.984375 385.289062 551.367188 385.476562 C 534.164062 386.367188 516.96875 387.460938 499.78125 388.625 C 495.914062 388.886719 494.613281 387.796875 495.648438 383.828125 C 503.617188 353.269531 503.980469 322.179688 501.242188 291.011719 C 499.824219 274.816406 492.636719 260.953125 481.039062 249.460938 C 467.097656 235.648438 452.972656 222.007812 440.214844 207.054688 C 435.835938 201.921875 431.8125 196.523438 428.863281 190.40625 C 428.363281 189.363281 427.269531 188.363281 428.074219 187.117188 C 428.890625 185.855469 430.25 186.347656 431.367188 186.59375 C 435.679688 187.550781 439.675781 186.925781 443.351562 184.441406 C 444.910156 183.390625 446.238281 183.480469 447.808594 184.710938 C 465.820312 198.835938 485.972656 209.433594 506.320312 219.621094 C 517.496094 225.214844 528.035156 231.703125 538.003906 239.167969 C 551.472656 249.253906 557.917969 263.359375 561.152344 279.402344 C 562.796875 287.570312 562.859375 295.769531 562.789062 304.023438 C 561.980469 322.5625 560.675781 341.058594 558.074219 359.457031 Z M 703.441406 621.046875 C 694.53125 605.308594 688.566406 588.597656 685.917969 570.605469 C 683.128906 551.671875 678.546875 533.097656 673.789062 514.554688 C 669.523438 497.90625 666.007812 481.0625 662.226562 464.289062 C 656.933594 440.8125 651.242188 417.453125 641.941406 395.15625 C 639.640625 389.644531 639.808594 389.1875 645.960938 388.9375 C 665.121094 388.167969 684.277344 387.285156 703.363281 385.371094 C 706.863281 385.019531 708.648438 387.335938 710.152344 389.6875 C 716.949219 400.34375 722.625 411.496094 724.527344 424.210938 C 727.515625 444.210938 726.007812 464.238281 725.085938 484.273438 C 724.054688 506.734375 721.117188 529.019531 719.179688 551.390625 C 717.160156 574.65625 711.929688 597.464844 709.996094 620.722656 C 709.804688 623.066406 709.410156 625.433594 708.128906 627.820312 C 705.699219 625.890625 704.722656 623.3125 703.441406 621.046875 Z M 445.03125 698.226562 C 440.9375 698.207031 437.09375 696.882812 433.355469 695.398438 C 428.3125 693.398438 425.78125 690.054688 425.929688 684.074219 C 426.324219 668.492188 426.128906 652.894531 426 637.300781 C 425.96875 633.484375 426.8125 632.519531 430.925781 633.394531 C 445.503906 636.496094 460.4375 636.03125 475.21875 637.085938 C 495.527344 638.53125 515.820312 640.417969 536.15625 641.226562 C 561.441406 642.230469 586.757812 643.171875 612.0625 640.71875 C 619.929688 639.957031 627.800781 639.660156 635.484375 637.601562 C 637.046875 637.179688 638.265625 638.566406 639.445312 639.390625 C 648.597656 645.789062 658.203125 651.175781 669.3125 653.390625 C 670.367188 653.601562 671.527344 653.984375 671.683594 655.160156 C 671.863281 656.523438 670.433594 656.671875 669.578125 657.128906 C 660.175781 662.15625 651.351562 668.078125 643.003906 674.683594 C 640.417969 676.726562 637.578125 677.976562 634.472656 678.367188 C 620.914062 680.070312 607.976562 684.335938 594.785156 687.582031 C 583.304688 690.410156 571.589844 692.070312 559.84375 693.460938 C 531.417969 696.824219 502.886719 698.371094 474.265625 698.242188 C 464.519531 698.242188 454.773438 698.277344 445.03125 698.226562 Z M 584.402344 178.921875 C 599.949219 176.75 615.601562 175.3125 631.164062 173.242188 C 636.765625 172.5 642.460938 172.078125 647.925781 170.414062 C 650.320312 169.6875 652.492188 170.027344 654.761719 171.390625 C 679.550781 186.261719 703.722656 202.074219 727.589844 218.378906 C 733.882812 222.679688 740.441406 226.601562 746.882812 230.691406 C 747.996094 231.402344 749.660156 231.929688 749.316406 233.511719 C 749.03125 234.839844 747.347656 234.746094 746.230469 234.890625 C 740.148438 235.699219 734.066406 236.574219 727.953125 237.070312 C 712.136719 238.359375 696.402344 240.4375 680.613281 241.855469 C 667.046875 243.074219 653.464844 244.066406 639.921875 245.601562 C 617.300781 248.167969 594.664062 250.589844 572.03125 253.039062 C 569.351562 253.328125 566.652344 253.386719 563.964844 253.605469 C 562.273438 253.746094 561.035156 253.035156 560.195312 251.664062 C 551.679688 237.773438 538.167969 229.71875 524.5 222.320312 C 504.109375 211.28125 482.914062 201.75 463.113281 189.589844 C 461.742188 188.746094 460.355469 187.929688 458.988281 187.105469 C 459.652344 185.480469 460.855469 185.960938 461.78125 186.046875 C 473.683594 187.148438 485.644531 187.320312 497.519531 189.050781 C 506.902344 190.414062 515.144531 194.738281 523.867188 197.800781 C 533.324219 201.117188 542.695312 202.230469 552.832031 201.007812 C 563.199219 199.761719 573.605469 198.746094 583.945312 197.214844 C 592.085938 196.007812 600.210938 194.699219 608.332031 193.378906 C 609.5 193.1875 610.691406 192.828125 611.734375 192.28125 C 612.84375 191.695312 613.535156 190.582031 613.261719 189.28125 C 613 188.03125 611.839844 187.78125 610.769531 187.863281 C 603.238281 188.46875 595.824219 187.425781 588.460938 186.117188 C 581.9375 184.960938 575.476562 183.460938 568.988281 182.113281 C 573.925781 178.734375 579.300781 179.632812 584.402344 178.921875 Z M 337.519531 209.398438 C 326.261719 212.101562 322.273438 220.242188 320.257812 230.453125 C 319.359375 235.003906 318.699219 239.527344 318.199219 244.128906 C 317.492188 250.628906 314.449219 256.34375 311.003906 261.820312 C 310.160156 263.167969 308.824219 264.476562 310.414062 266.207031 C 311.808594 267.722656 313.390625 267.949219 315.308594 267.367188 C 335.511719 261.25 355.609375 254.980469 373.742188 243.640625 C 381.097656 239.039062 386.730469 233.300781 390.8125 225.691406 C 397.960938 212.378906 405.398438 199.21875 412.746094 186.011719 C 413.445312 184.753906 414.113281 182.632812 415.683594 183.082031 C 417.6875 183.65625 420.300781 184.152344 421.082031 186.605469 C 426.25 202.882812 437.703125 214.859375 448.835938 226.980469 C 457.652344 236.578125 466.96875 245.714844 476.003906 255.109375 C 477.535156 256.703125 480.191406 258.539062 479.59375 260.464844 C 478.871094 262.785156 475.652344 261.691406 473.527344 262.011719 C 450.246094 265.519531 426.699219 266.375 403.339844 269.167969 C 394.136719 270.269531 384.8125 270.359375 375.554688 271.074219 C 350.617188 273 325.761719 275.664062 301.058594 279.664062 C 292.351562 281.074219 283.488281 281.511719 274.910156 283.753906 C 272.886719 284.28125 271.496094 283.019531 270.023438 282.011719 C 249.371094 267.863281 229.496094 252.695312 210.167969 236.785156 C 206.960938 234.148438 207.019531 232.300781 209.183594 229.011719 C 218.386719 215.023438 232.851562 209.773438 247.816406 205.589844 C 257.050781 203.007812 266.625 202.234375 276.269531 202.1875 C 289.441406 202.125 302.554688 200.984375 315.609375 199.113281 C 318.6875 198.671875 321.6875 198.871094 324.78125 200.226562 C 330.441406 202.699219 336.636719 203.179688 342.742188 203.808594 C 344.285156 203.96875 345.988281 203.382812 347.644531 204.734375 C 344.617188 207.332031 340.992188 208.566406 337.519531 209.398438 Z M 118.726562 683.847656 C 109.015625 674.257812 98.796875 665.253906 87.90625 657.0625 C 84.652344 654.613281 83.414062 651.757812 82.996094 648.078125 C 79.171875 614.15625 76.421875 580.160156 74.0625 546.097656 C 70.96875 501.472656 71.128906 456.847656 71.1875 412.191406 C 71.195312 407.242188 71.457031 402.335938 72.582031 397.464844 C 73.335938 394.195312 74.644531 394.246094 76.789062 396.152344 C 81.382812 400.226562 86.054688 404.214844 90.574219 408.367188 C 105.339844 421.941406 120.039062 435.578125 134.78125 449.171875 C 136.675781 450.917969 138.046875 452.390625 135.949219 455.175781 C 128.191406 465.484375 125.636719 477.59375 124.445312 490.101562 C 122.332031 512.289062 124.148438 534.417969 125.625 556.542969 C 126.777344 573.867188 127.636719 591.230469 129.398438 608.496094 C 131.507812 629.148438 134.519531 649.707031 136.972656 670.324219 C 138.136719 680.132812 138.925781 689.984375 139.839844 699.820312 C 139.929688 700.804688 140.347656 701.910156 139.054688 703.109375 C 132.183594 696.617188 125.324219 690.363281 118.726562 683.847656 Z M 265.867188 401.820312 C 266.894531 426.96875 268.21875 452.117188 272.109375 477.015625 C 273.933594 488.671875 276.296875 500.238281 277.285156 512.015625 C 277.378906 513.152344 278.386719 514.578125 277.171875 515.355469 C 275.675781 516.304688 274.785156 514.65625 273.816406 513.84375 C 254.160156 497.371094 235.738281 479.558594 217.414062 461.640625 C 212.054688 456.402344 206.722656 451.136719 201.332031 445.929688 C 199.410156 444.074219 198.179688 442.070312 198.316406 439.242188 C 199.015625 424.984375 194.875 411.351562 192.703125 397.46875 C 190.390625 382.710938 187.371094 368.101562 186.460938 353.097656 C 185.53125 337.796875 185.128906 322.578125 186.667969 307.324219 C 188.71875 287.039062 191.773438 266.960938 199.207031 247.8125 C 201.050781 243.066406 201.476562 242.96875 205.296875 246.164062 C 224.835938 262.523438 244.679688 278.492188 266.265625 292.113281 C 270.929688 295.058594 268.230469 299.035156 268.84375 302.339844 C 265.789062 335.597656 264.515625 368.679688 265.867188 401.820312 Z M 230.75 806.675781 C 218.015625 790.566406 205.242188 774.496094 191.371094 759.339844 C 189.835938 757.664062 188.503906 755.964844 188.449219 753.476562 C 188.050781 735.152344 184.628906 717.164062 182.242188 699.066406 C 180.621094 686.773438 179.304688 674.421875 177.078125 662.238281 C 172.289062 636.039062 169.601562 609.558594 165.652344 583.25 C 162.234375 560.46875 159.257812 537.613281 159.6875 514.535156 C 159.878906 504.433594 160.59375 494.179688 165.109375 484.761719 C 167.203125 480.386719 167.957031 480.1875 171.558594 483.484375 C 196.222656 506.039062 220.523438 528.976562 244.359375 552.410156 C 247.636719 555.632812 246.359375 559.472656 245.871094 562.976562 C 243.824219 577.652344 242.015625 592.347656 241.191406 607.152344 C 239.21875 642.648438 239.59375 678.183594 240.414062 713.6875 C 240.886719 734.019531 242.710938 754.328125 244.277344 774.632812 C 245.496094 790.445312 246.707031 806.300781 246.527344 822.195312 C 246.519531 822.929688 246.613281 823.714844 245.324219 824.464844 C 240.5 818.585938 235.523438 812.710938 230.75 806.675781 Z M 746.140625 323.449219 C 745.722656 328.671875 745.894531 333.933594 745.65625 339.175781 C 745.167969 349.941406 744.507812 360.703125 744.097656 371.476562 C 743.984375 374.339844 742.878906 375.394531 740.082031 375.578125 C 691.1875 378.804688 642.332031 382.804688 593.300781 383.503906 C 584.90625 383.621094 576.507812 383.800781 568.171875 384.910156 C 564.34375 385.421875 563.367188 384.40625 563.914062 380.304688 C 567.234375 355.355469 570.398438 330.386719 571.703125 305.222656 C 572.402344 291.636719 571.59375 278.261719 566.878906 265.371094 C 565.820312 262.472656 566.777344 261.613281 569.5 261.34375 C 584.847656 259.835938 600.191406 258.285156 615.53125 256.691406 C 626.097656 255.59375 636.648438 254.3125 647.222656 253.277344 C 664.070312 251.625 680.945312 250.191406 697.792969 248.519531 C 715.066406 246.804688 732.328125 244.980469 749.578125 243.023438 C 751.992188 242.746094 752.59375 243.535156 752.515625 245.546875 C 752.425781 247.792969 752.234375 250.035156 752.160156 251.136719 C 750.078125 276 748.035156 299.71875 746.140625 323.449219 Z M 756.964844 751.242188 C 780.511719 774.675781 807.207031 793.714844 837.585938 807.40625 C 841.808594 809.308594 846.050781 811.167969 850.328125 812.949219 C 855.015625 814.902344 858.039062 812.980469 858.0625 807.902344 C 858.089844 801.621094 856.078125 795.550781 856.386719 789.164062 C 856.800781 780.613281 858.558594 772.3125 860.398438 764.046875 C 861.398438 759.539062 860.625 755.777344 858.378906 752.105469 C 849.90625 738.242188 838.480469 727 826.046875 716.820312 C 811.101562 704.585938 795.445312 693.265625 779.269531 682.699219 C 775.164062 680.019531 770.789062 677.757812 765.617188 674.773438 C 769.90625 673.796875 773.121094 673.582031 776.28125 675.175781 C 788.050781 681.113281 800.789062 683.40625 813.636719 685.644531 C 849.25 691.84375 885.191406 691.621094 921.121094 691.671875 C 925.101562 691.675781 925.363281 693.492188 925.386719 696.582031 C 925.648438 729.007812 922.773438 761.25 920.03125 793.503906 C 918.417969 812.46875 917.578125 831.472656 917.097656 850.496094 C 916.953125 856.175781 915.664062 861.816406 916.03125 867.523438 C 916.253906 870.988281 914.691406 871.777344 911.492188 871.78125 C 880.023438 871.8125 848.558594 872.171875 817.09375 872.03125 C 792.730469 871.925781 768.683594 875.53125 744.484375 877.351562 C 740.902344 877.621094 737.292969 877.613281 733.722656 877.96875 C 730.511719 878.289062 729.53125 876.972656 729.578125 873.886719 C 729.765625 861.449219 729.953125 849.007812 729.8125 836.574219 C 729.644531 821.738281 729.566406 806.886719 728.683594 792.085938 C 727.199219 767.28125 728.4375 742.335938 724.792969 717.644531 C 724.609375 716.390625 724.207031 714.980469 725.714844 713.316406 C 734.867188 727.285156 745.402344 739.734375 756.964844 751.242188 Z M 676.382812 750.792969 C 674.003906 768.554688 671.199219 786.261719 668.234375 803.9375 C 663.78125 830.53125 657.609375 856.699219 648.066406 882 C 647.015625 884.777344 645.484375 885.863281 642.546875 886.230469 C 606.324219 890.71875 569.914062 891.378906 533.492188 892.5 C 510.265625 893.214844 487.054688 894.429688 463.832031 893.367188 C 451.742188 892.816406 453.082031 894.359375 451.9375 881.476562 C 446.914062 824.964844 446.78125 768.324219 447.144531 711.664062 C 447.199219 702.871094 447.191406 704.472656 454.503906 704.539062 C 480 704.765625 505.488281 704.613281 530.929688 702.777344 C 543.589844 701.863281 556.179688 700.203125 568.789062 698.667969 C 589.003906 696.210938 608.042969 689.582031 627.492188 684.355469 C 628.613281 684.054688 629.761719 683.46875 631.136719 684.707031 C 626.441406 689.667969 621.605469 694.46875 617.128906 699.582031 C 606.25 711.996094 597.085938 725.671875 587.988281 739.410156 C 579.304688 752.53125 570.101562 765.289062 560.335938 777.636719 C 558.566406 779.871094 556.402344 782.257812 557.910156 785.289062 C 559.359375 788.207031 562.523438 788.410156 565.378906 788.417969 C 570.171875 788.425781 575.007812 788.519531 579.753906 787.980469 C 596.65625 786.0625 613.601562 786.136719 630.511719 787.097656 C 639.121094 787.585938 645.003906 784.804688 649.695312 777.546875 C 656.777344 766.59375 662.882812 755.089844 669.652344 743.96875 C 672.386719 739.472656 674.398438 734.433594 678.738281 730.082031 C 678.878906 737.632812 677.265625 744.199219 676.382812 750.792969 Z M 927.125 607.195312 C 927.121094 613.128906 926.699219 613.730469 920.792969 614.746094 C 914.007812 615.914062 907.226562 617.382812 900.386719 617.867188 C 877.6875 619.476562 855.054688 621.953125 832.28125 622.605469 C 827.324219 622.746094 824.585938 621.542969 822.402344 616.632812 C 818.203125 607.179688 814.292969 597.691406 811.546875 587.710938 C 809.730469 581.105469 806.574219 579.332031 799.90625 580.835938 C 785.863281 584 774.535156 591.914062 764.195312 601.476562 C 757.921875 607.28125 752.15625 613.546875 746.835938 620.269531 C 742.164062 626.175781 735.972656 630.550781 730.1875 635.304688 C 728.730469 636.507812 727.277344 636.648438 725.765625 635.277344 C 723.046875 632.8125 719.957031 631.070312 716.242188 630.59375 C 714.410156 630.359375 713.769531 629.347656 714.054688 627.449219 C 717.273438 606.011719 720.773438 584.609375 723.511719 563.109375 C 725.609375 546.628906 726.824219 530.035156 728.15625 513.460938 C 730.105469 489.230469 730.382812 465.007812 730.167969 440.75 C 730.136719 436.941406 732.316406 436.726562 735.054688 436.632812 C 753.335938 436.019531 771.621094 435.5625 789.890625 434.714844 C 808.601562 433.847656 827.347656 433.128906 845.984375 431.371094 C 866.804688 429.410156 887.519531 426.3125 908.296875 423.8125 C 912.300781 423.332031 916.363281 423.351562 920.398438 423.132812 C 923.617188 422.960938 923.460938 425.320312 923.570312 427.417969 C 924.382812 442.980469 924.96875 458.554688 926.03125 474.101562 C 927.277344 492.371094 926.691406 510.664062 927.128906 525.769531 C 927.128906 555.027344 927.132812 581.109375 927.125 607.195312 Z M 669.242188 575.703125 C 664.867188 569.417969 660.121094 563.445312 654.90625 557.839844 C 649.8125 552.363281 645.199219 551.84375 639.308594 556.742188 C 634.589844 560.667969 630.246094 565.039062 625.753906 569.234375 C 616.550781 577.824219 606.835938 585.867188 598.398438 595.261719 C 592.011719 602.371094 592.101562 605.609375 599.785156 611.273438 C 608.707031 617.851562 617.859375 624.113281 626.863281 630.578125 C 627.980469 631.382812 630.09375 631.910156 629.542969 633.691406 C 629.046875 635.296875 627.058594 635.066406 625.597656 635.136719 C 607.484375 636.003906 589.371094 637.707031 571.234375 636.8125 C 545.511719 635.546875 519.734375 635.402344 494.066406 632.804688 C 481.40625 631.523438 468.632812 631.257812 455.898438 630.972656 C 451.777344 630.878906 450.386719 629.964844 450.703125 625.652344 C 452.570312 599.945312 453.625 574.191406 454.660156 548.4375 C 456.023438 514.574219 455.199219 480.679688 456.160156 446.8125 C 456.3125 441.449219 456.367188 441.382812 461.730469 441.5625 C 483.46875 442.300781 505.199219 441.746094 526.902344 440.550781 C 539.492188 439.855469 552.085938 439.839844 564.671875 439.75 C 591.363281 439.566406 618.054688 439.722656 644.746094 439.550781 C 648.292969 439.527344 649.753906 440.707031 650.515625 444.078125 C 655.910156 467.84375 661.40625 491.585938 666.972656 515.308594 C 670.039062 528.390625 673.511719 541.378906 676.398438 554.496094 C 678.457031 563.839844 679.914062 573.316406 681.511719 582.753906 C 682.230469 586.980469 684.296875 590.90625 683.394531 595.746094 C 678.675781 589.066406 673.910156 582.417969 669.242188 575.703125 Z M 276.652344 295.394531 C 276.632812 292.632812 277.796875 291.722656 280.269531 291.410156 C 290.371094 290.148438 300.472656 288.871094 310.554688 287.457031 C 337.382812 283.691406 364.246094 280.308594 391.28125 278.289062 C 412.339844 276.714844 433.367188 274.691406 454.394531 272.710938 C 463.027344 271.894531 471.628906 270.710938 480.230469 269.59375 C 484.027344 269.101562 486.042969 270.34375 487.660156 274.136719 C 492.8125 286.222656 492.410156 299.027344 493.21875 311.65625 C 494.300781 328.585938 493.46875 345.527344 491.808594 362.371094 C 490.976562 370.804688 488.664062 379.089844 487.0625 387.449219 C 486.585938 389.921875 484.617188 389.765625 482.875 389.898438 C 468.535156 391 454.195312 392.117188 439.847656 393.117188 C 433.726562 393.542969 429.6875 397.40625 429.4375 403.574219 C 428.957031 415.542969 426.441406 427.277344 425.519531 439.21875 C 424.03125 458.5 423.039062 477.78125 423.027344 497.109375 C 423.023438 501.074219 421.792969 502.496094 417.796875 503.011719 C 400.132812 505.289062 382.496094 507.808594 364.886719 510.46875 C 342.570312 513.839844 320.289062 517.429688 297.992188 520.925781 C 296.660156 521.132812 295.304688 521.242188 294 521.558594 C 290.515625 522.394531 289.101562 520.769531 288.589844 517.503906 C 287.699219 511.878906 287.886719 506.1875 287.046875 500.523438 C 283.984375 479.949219 280.449219 459.417969 278.898438 438.652344 C 277.9375 425.8125 277.625 412.925781 276.796875 400.070312 C 275.480469 379.722656 274.765625 359.367188 276.710938 338.980469 C 276.710938 324.453125 276.773438 309.921875 276.652344 295.394531 Z M 249.824219 578.8125 C 250.226562 572.992188 251.261719 567.21875 251.230469 561.355469 C 251.214844 558.03125 253.671875 557.511719 256.148438 557.390625 C 263.777344 557.019531 271.363281 556.242188 278.96875 555.539062 C 301.496094 553.453125 323.929688 550.675781 346.199219 546.742188 C 367.84375 542.917969 389.398438 538.570312 410.992188 534.453125 C 411.433594 534.367188 411.882812 534.324219 412.320312 534.230469 C 421.507812 532.25 421.738281 532.257812 421.339844 541.902344 C 420.652344 558.515625 419.324219 575.101562 418.839844 591.71875 C 417.347656 642.804688 417.257812 693.90625 417.203125 745.011719 C 417.183594 765.386719 416.28125 785.765625 416.511719 806.148438 C 416.546875 809.316406 415.6875 810.398438 412.277344 810.746094 C 398.28125 812.183594 384.5 815.0625 370.695312 817.730469 C 342.183594 823.242188 313.507812 827.726562 284.722656 831.519531 C 276.851562 832.558594 268.957031 833.429688 261.105469 834.570312 C 257.445312 835.101562 256.171875 834.023438 255.988281 830.160156 C 254.898438 807.117188 253.976562 784.054688 252.164062 761.0625 C 249.136719 722.667969 247.722656 684.234375 247.980469 641.621094 C 247.230469 623.386719 248.292969 601.089844 249.824219 578.8125 Z M 931.898438 434.523438 C 930.960938 422.800781 927.84375 412.808594 918.917969 404.269531 C 909.414062 395.179688 899.914062 385.957031 891.492188 375.765625 C 890.21875 374.222656 888.515625 373.933594 886.679688 373.773438 C 872.324219 372.503906 857.914062 373.089844 843.535156 372.539062 C 815.792969 371.472656 788.09375 373.363281 760.378906 374.152344 C 756.089844 374.273438 754.945312 373.007812 755.300781 368.847656 C 757.328125 345.144531 757.972656 321.351562 759.835938 297.621094 C 761.429688 277.332031 762.742188 256.960938 762.347656 236.550781 C 762.300781 234.015625 761.53125 232.324219 759.371094 231.003906 C 755.160156 228.421875 751.019531 225.71875 746.902344 222.988281 C 727.941406 210.414062 709.195312 197.5 689.992188 185.300781 C 671.542969 173.585938 652.300781 163.105469 634.003906 151.164062 C 610.667969 135.941406 588.066406 119.609375 565.617188 103.089844 C 559.078125 98.277344 552.164062 96.066406 544.199219 99.050781 C 543.652344 99.253906 543.019531 99.296875 542.425781 99.300781 C 529.96875 99.332031 517.761719 101.9375 505.46875 103.382812 C 485.539062 105.722656 465.582031 107.554688 445.582031 108.839844 C 428.691406 109.925781 411.753906 110.273438 394.839844 110.953125 C 393.492188 111.007812 392.140625 111.023438 390.796875 111.144531 C 374.71875 112.574219 358.660156 114.296875 342.558594 115.394531 C 323.421875 116.695312 304.351562 118.671875 285.328125 120.980469 C 261.859375 123.832031 238.363281 126.464844 214.929688 129.652344 C 199.363281 131.765625 183.800781 134.128906 168.136719 135.589844 C 152.492188 137.050781 137.207031 141.296875 121.363281 141.421875 C 116.484375 141.460938 111.609375 142.851562 106.738281 143.664062 C 102.378906 144.390625 100.546875 147.089844 100.15625 151.421875 C 99.117188 162.921875 98.167969 174.414062 98.226562 185.972656 C 98.433594 228.246094 99.535156 270.476562 102.738281 312.648438 C 104.308594 333.285156 106.222656 353.808594 112.132812 373.734375 C 113.15625 377.175781 111.273438 377.152344 109.03125 377.363281 C 97.964844 378.402344 87.175781 380.945312 76.4375 383.679688 C 69.421875 385.464844 65.871094 389.628906 65.042969 396.996094 C 64.238281 404.144531 63.488281 411.296875 63.457031 418.511719 C 63.257812 467.222656 62.640625 515.914062 66.3125 564.585938 C 68.464844 593.125 70.972656 621.597656 74.574219 649.980469 C 74.972656 653.109375 76.234375 655.835938 78.820312 658.078125 C 87.988281 666.019531 97.265625 673.878906 105.984375 682.300781 C 125.066406 700.734375 143.46875 719.847656 161.96875 738.867188 C 192.121094 769.863281 219.257812 803.421875 246.394531 836.984375 C 249.191406 840.445312 251.601562 841.40625 255.558594 841.113281 C 272.871094 839.828125 290.152344 838.28125 307.414062 836.328125 C 329.171875 833.867188 350.664062 829.914062 372.1875 826.078125 C 385.734375 823.664062 399.257812 821.105469 412.769531 818.488281 C 415.589844 817.941406 416.421875 818.808594 416.605469 821.585938 C 417.339844 832.835938 419.289062 843.898438 423.15625 854.503906 C 427.90625 867.539062 431.195312 881.210938 439.285156 892.863281 C 440.976562 895.300781 443.085938 896.53125 445.933594 897.640625 C 456.300781 901.671875 467.140625 901.3125 477.859375 901.828125 C 512.058594 903.46875 546.191406 900.367188 580.371094 900.066406 C 595.03125 899.941406 609.703125 898.449219 624.324219 897.101562 C 638.03125 895.839844 651.664062 893.785156 665.359375 892.375 C 679.964844 890.871094 694.636719 889.949219 709.234375 888.351562 C 734.699219 885.5625 760.261719 883.785156 785.773438 881.550781 C 820.28125 878.527344 854.976562 879.546875 889.609375 879.757812 C 898.871094 879.816406 908.191406 880.132812 917.367188 878.101562 C 921.140625 877.265625 923.074219 874.980469 923.546875 871.386719 C 925.324219 857.867188 927.203125 844.347656 926.867188 830.664062 C 926.53125 817.140625 928.132812 803.703125 929.296875 790.300781 C 930.886719 771.945312 932.507812 753.585938 933.46875 735.199219 C 935.34375 699.421875 934.902344 663.574219 936.238281 627.769531 C 937.179688 602.464844 936.417969 577.097656 936.417969 559.351562 C 937.023438 512.601562 935.023438 473.546875 931.898438 434.523438 Z M 846.238281 631.128906 C 845.152344 631.136719 843.9375 631.316406 843.804688 632.597656 C 843.640625 634.152344 844.894531 634.523438 846.164062 634.675781 C 846.761719 634.742188 847.359375 634.828125 847.953125 634.835938 C 858.890625 634.945312 869.773438 635.765625 880.644531 636.96875 C 886.433594 637.613281 892.265625 638.007812 898.089844 638.191406 C 905.15625 638.414062 912.136719 637.535156 918.75 634.910156 C 920.871094 634.070312 922.839844 632.429688 921.59375 629.6875 C 920.457031 627.175781 918.390625 627.789062 916.203125 628.4375 C 907.871094 630.90625 899.445312 632.699219 890.640625 632.683594 C 878.660156 632.667969 866.714844 632.019531 853.375 631.121094 C 851.921875 631.121094 849.078125 631.105469 846.238281 631.128906 Z M 686.828125 807.09375 C 686.785156 805.933594 686.742188 804.449219 685.144531 804.363281 C 683.429688 804.277344 683.496094 805.933594 683.332031 806.980469 C 681.332031 819.839844 677.761719 832.324219 674.203125 844.796875 C 671.183594 855.375 671.15625 866.722656 665.945312 876.71875 C 665.371094 877.8125 665.265625 878.722656 666.453125 879.351562 C 668.023438 880.179688 669.550781 879.929688 670.246094 878.273438 C 673.257812 871.109375 678.128906 864.777344 680.015625 857.148438 C 683.492188 843.0625 686.015625 828.804688 686.855469 814.277344 C 686.855469 811.882812 686.917969 809.484375 686.828125 807.09375 Z M 846.722656 793.703125 C 847.394531 791.914062 847.355469 789.996094 845.488281 788.929688 C 843.027344 787.523438 840.449219 786.300781 837.851562 785.160156 C 829.085938 781.316406 820.390625 777.351562 812.105469 772.519531 C 796.539062 763.445312 782.214844 752.734375 769.023438 740.476562 C 768.097656 739.617188 766.800781 737.628906 765.351562 739.328125 C 764.21875 740.660156 766 741.6875 766.917969 742.554688 C 785.8125 760.394531 806.457031 775.910156 829.007812 788.847656 C 833.550781 791.449219 838.390625 793.476562 843.015625 795.097656 C 844.828125 795.464844 846.167969 795.183594 846.722656 793.703125 Z M 705.761719 400.578125 C 704.78125 399.1875 703.425781 397.050781 701.527344 398.285156 C 699.589844 399.550781 701.59375 401.265625 702.304688 402.550781 C 705.847656 408.976562 709.664062 415.308594 710.09375 422.882812 C 711.164062 441.78125 715.492188 460.546875 712.476562 479.625 C 712.28125 480.851562 711.878906 482.566406 713.898438 482.796875 C 715.839844 483.019531 716.472656 481.636719 716.644531 479.992188 C 717.925781 467.984375 719.191406 455.972656 720.460938 443.964844 C 721.3125 427.511719 714.921875 413.570312 705.761719 400.578125 Z M 885.808594 440.589844 C 889.089844 440.304688 892.378906 439.898438 895.664062 439.867188 C 902.191406 439.804688 905.070312 442.007812 906.453125 448.355469 C 909.679688 463.167969 911.0625 478.292969 912.195312 493.324219 C 913.90625 516.003906 915.203125 538.753906 914.894531 561.535156 C 914.800781 568.429688 914.414062 575.316406 914.226562 582.210938 C 914.195312 583.332031 913.871094 584.953125 915.429688 585.203125 C 917.078125 585.472656 918.257812 584.3125 918.722656 582.757812 C 919.019531 581.777344 918.996094 580.683594 919.035156 579.640625 C 919.601562 563.453125 919.476562 547.269531 919.203125 531.074219 C 918.996094 518.800781 916.683594 506.558594 917.898438 494.308594 C 919.203125 481.113281 919.242188 467.996094 917.585938 454.882812 C 916.703125 447.902344 914.015625 441.5625 907.203125 438.601562 C 898.15625 434.664062 888.820312 436.277344 878.628906 438.261719 C 881.359375 440.914062 883.5625 440.785156 885.808594 440.589844 Z M 739.273438 286.945312 C 739.378906 281.105469 739.226562 273.957031 736.65625 267.039062 C 734.105469 260.167969 732.011719 258.488281 724.828125 258.4375 C 719.433594 258.402344 714.035156 258.441406 708.636719 258.378906 C 707.179688 258.363281 705.152344 258.449219 705.199219 256.460938 C 705.242188 254.679688 707.214844 255.195312 708.453125 255.054688 C 713.800781 254.449219 719.164062 253.972656 724.5 253.28125 C 735.589844 251.84375 745.167969 259.4375 745.183594 272.527344 C 745.195312 281.964844 743.628906 291.351562 744.015625 300.816406 C 744.074219 302.230469 743.851562 303.695312 741.925781 303.550781 C 740.121094 303.414062 739.320312 302.128906 739.292969 300.460938 C 739.234375 296.414062 739.273438 292.367188 739.273438 286.945312" fill="inherit"/></g></svg>