<?xml version="1.0" encoding="UTF-8" standalone="no"?><svg xmlns="http://www.w3.org/2000/svg" xmlns:xlink="http://www.w3.org/1999/xlink" fill="#000000" height="40" preserveAspectRatio="xMidYMid meet" version="1" viewBox="0.0 0.0 44.0 40.0" width="44" zoomAndPan="magnify"><defs><clipPath id="a"><path d="M 0 35 L 44 35 L 44 39.988281 L 0 39.988281 Z M 0 35"/></clipPath></defs><g><g id="change1_1"><path d="M 4.601562 32.597656 C 5.019531 23.320312 12.671875 15.929688 22.054688 15.929688 C 31.433594 15.929688 39.089844 23.320312 39.507812 32.597656 Z M 20.847656 13.730469 C 20.847656 13.101562 21.371094 12.578125 22 12.578125 C 22.628906 12.578125 23.15625 13.101562 23.15625 13.730469 C 23.15625 13.992188 23.046875 14.203125 22.945312 14.414062 L 21.058594 14.414062 C 20.902344 14.203125 20.847656 13.941406 20.847656 13.730469 Z M 24.621094 14.515625 C 24.726562 14.253906 24.78125 13.992188 24.78125 13.679688 C 24.78125 12.15625 23.523438 10.953125 22.054688 10.953125 C 20.535156 10.953125 19.328125 12.210938 19.328125 13.679688 C 19.328125 13.992188 19.378906 14.253906 19.484375 14.515625 C 10.207031 15.773438 3.082031 23.742188 3.082031 33.332031 L 3.082031 34.117188 L 41.132812 34.117188 L 41.132812 33.332031 C 41.027344 23.792969 33.898438 15.828125 24.621094 14.515625" fill="#8a95a0"/></g><g id="change1_2"><path d="M 7.113281 30.921875 L 6.957031 30.921875 C 6.539062 30.816406 6.328125 30.449219 6.433594 30.03125 C 7.640625 24.945312 11.519531 20.59375 16.917969 18.34375 C 17.28125 18.183594 17.703125 18.34375 17.859375 18.761719 C 18.015625 19.128906 17.859375 19.546875 17.441406 19.703125 C 12.515625 21.75 8.898438 25.730469 7.796875 30.34375 C 7.742188 30.660156 7.429688 30.921875 7.113281 30.921875" fill="#8a95a0"/></g><g clip-path="url(#a)" id="change1_6"><path d="M 3.5 38.46875 L 40.503906 38.46875 L 41.96875 36.53125 L 2.03125 36.53125 Z M 40.554688 39.988281 L 3.445312 39.988281 C 3.027344 39.988281 2.605469 39.78125 2.34375 39.464844 L 0.195312 36.6875 C -0.0117188 36.371094 -0.0664062 36.003906 0.0898438 35.636719 C 0.25 35.324219 0.617188 35.113281 0.984375 35.113281 L 43.019531 35.113281 C 43.386719 35.113281 43.753906 35.324219 43.90625 35.640625 C 44.066406 35.953125 44.015625 36.371094 43.804688 36.6875 L 41.65625 39.464844 C 41.394531 39.78125 40.972656 39.988281 40.554688 39.988281" fill="#8a95a0"/></g><g id="change1_3"><path d="M 21.84375 8.28125 C 21.421875 8.28125 21.109375 7.964844 21.109375 7.546875 L 21.109375 0.730469 C 21.109375 0.3125 21.421875 0 21.84375 0 C 22.261719 0 22.578125 0.3125 22.578125 0.679688 L 22.578125 7.492188 C 22.578125 7.914062 22.210938 8.28125 21.84375 8.28125" fill="#8a95a0"/></g><g id="change1_4"><path d="M 13.039062 10.429688 C 12.777344 10.429688 12.515625 10.269531 12.410156 10.0625 L 9.003906 4.140625 C 8.792969 3.773438 8.898438 3.351562 9.265625 3.144531 C 9.632812 2.933594 10.050781 3.039062 10.261719 3.40625 L 13.667969 9.328125 C 13.878906 9.695312 13.773438 10.113281 13.40625 10.324219 C 13.300781 10.375 13.195312 10.429688 13.039062 10.429688" fill="#8a95a0"/></g><g id="change1_5"><path d="M 30.59375 10.429688 C 30.492188 10.429688 30.335938 10.375 30.230469 10.324219 C 29.863281 10.113281 29.757812 9.695312 29.96875 9.328125 L 33.375 3.40625 C 33.585938 3.039062 34.003906 2.933594 34.371094 3.144531 C 34.734375 3.351562 34.84375 3.773438 34.632812 4.140625 L 31.222656 10.0625 C 31.121094 10.269531 30.859375 10.429688 30.59375 10.429688" fill="#8a95a0"/></g></g></svg>